<svg xmlns="http://www.w3.org/2000/svg" xmlns:xlink="http://www.w3.org/1999/xlink" viewBox="0 0 600 360.81"><defs><style>.cls-1{opacity:0.5;fill:url(#radial-gradient);}</style><radialGradient id="radial-gradient" cx="-13" cy="54.41" r="439.34" gradientTransform="matrix(-1, 0, 0, 1, 600, 0)" gradientUnits="userSpaceOnUse"><stop offset="0" stop-color="#5ce1e6"/><stop offset="0.13" stop-color="#47c1cf"/><stop offset="0.31" stop-color="#2e9ab2"/><stop offset="0.5" stop-color="#1a7b9c"/><stop offset="0.68" stop-color="#0c658c"/><stop offset="0.85" stop-color="#035882"/><stop offset="1" stop-color="#00537f"/></radialGradient></defs><g id="Layer_2" data-name="Layer 2"><g id="Ñëîé_1" data-name="Ñëîé 1"><path id="Connections_1" class="cls-1" d="M583.37.54a4.94,4.94,0,0,0-4.49,0c-.94.54-1.17,1.32-.7,2L508.66,42.67V93.34l-16.94,9.78v55.11l-58,33.5-9-5.22,44.74-25.83V130.47l-.18-.11L418.35,101V90.75l28.77-16.61a5,5,0,0,0,4.1-.18,1.37,1.37,0,0,0,0-2.6,5,5,0,0,0-4.49,0c-1.12.65-1.22,1.65-.32,2.37L417.64,90.34V101.4l.18.11,50.87,29.37v29.39l-33.81,19.51V167.2l15.5-8.95a5,5,0,0,0,4.1-.19c1.24-.71,1.24-1.87,0-2.59a5,5,0,0,0-4.49,0c-1.12.65-1.22,1.65-.32,2.37l-15.5,8.95v13.4L424,186.1l-12.09-7V157.2L434.66,144V128.88l-.18-.11-48-27.71c.9-.72.8-1.72-.32-2.37a5,5,0,0,0-4.49,0c-1.24.72-1.24,1.88,0,2.59a5,5,0,0,0,4.1.19L434,129.29v14.33l-22.09,12.75v-15.1l-.18-.11-29.37-17c.9-.72.8-1.72-.32-2.37a4.94,4.94,0,0,0-4.49,0c-1.24.72-1.24,1.88,0,2.59a5,5,0,0,0,4.1.19l29.55,17.06v37l-8.5-4.91-14,8.08L376,174.57V156.79l-.18-.11-33.5-19.34V120.58a4.28,4.28,0,0,0,1.89-.52c1.24-.71,1.24-1.87,0-2.59a5,5,0,0,0-4.49,0c-1.24.72-1.24,1.88,0,2.59a4.28,4.28,0,0,0,1.89.52v17.17l.18.1,33.5,19.35v17l-54.53-31.48V109.31l29.57-17.08h27.13l.09,0L424.11,65.3a5,5,0,0,0,4.1-.18,1.37,1.37,0,0,0,0-2.6,5,5,0,0,0-4.49,0c-1.12.65-1.22,1.65-.32,2.37L377.27,91.52H351.56L437.1,42.13a5,5,0,0,0,4.1-.18,1.37,1.37,0,0,0,0-2.6,5,5,0,0,0-4.49,0c-1.12.65-1.22,1.66-.32,2.37L320,108.9v34.19l.18.1L388,182.29l-13.63,7.87L258.68,123.4V83.56l-.18-.1L219.18,60.75c.9-.71.8-1.72-.32-2.36a4.94,4.94,0,0,0-4.49,0c-1.24.71-1.24,1.87,0,2.59a5,5,0,0,0,4.1.18L258,84v39.84l.18.1,115.46,66.66-13,7.5L246.27,132h-68.2l-42.62-24.61V69.62a3.9,3.9,0,0,0,1.23-.44,1.37,1.37,0,0,0,0-2.59,4.94,4.94,0,0,0-4.49,0,1.37,1.37,0,0,0,0,2.59,4.76,4.76,0,0,0,2.55.52v38.14l.18.11,43,24.8h68.2l96.54,55.74H323.2l-32.95-19H264.87l-.08,0-35.2,20.32a5,5,0,0,0-4.1.19c-1.24.72-1.24,1.88,0,2.59a5,5,0,0,0,4.5,0c1.11-.64,1.21-1.65.31-2.36l34.77-20.07h25l32.95,19h20.84l16.07,9.28-34.64,20-9.85-5.69V197.86l-25-14.44c.9-.72.8-1.73-.31-2.37a5,5,0,0,0-4.5,0,1.37,1.37,0,0,0,0,2.59,5,5,0,0,0,4.1.19l25,14.44v14.11L288,197H275.39l-.08.05-15.06,8.7a5,5,0,0,0-4.1.18,1.37,1.37,0,0,0,0,2.6,5,5,0,0,0,4.49,0c1.12-.64,1.22-1.65.32-2.36l14.63-8.45h12.25l36.73,21.21-6.67,3.85L339.19,235l-10,5.76H314.14l-10.79-6.23c.86-.71.75-1.7-.36-2.34a5,5,0,0,0-4.49,0c-1.24.72-1.24,1.88,0,2.59a5,5,0,0,0,4.15.17L314,241.5h14l-25.43,14.68-59.82-34.54H199.69l-.08.05-24.23,14a5,5,0,0,0-4.1.19c-1.24.71-1.24,1.87,0,2.59a5,5,0,0,0,4.49,0c1.11-.65,1.21-1.65.32-2.37l23.79-13.74h42.67L288.69,249H268.94l-19.31-11.15c.9-.71.8-1.72-.32-2.36a4.94,4.94,0,0,0-4.49,0c-1.24.71-1.24,1.87,0,2.59a5,5,0,0,0,4.1.19l19.83,11.44h21.17l11.93,6.89-30.37,17.53H174.41L99,230.59c.89-.72.79-1.72-.32-2.37a5,5,0,0,0-4.49,0c-1.25.72-1.25,1.88,0,2.59a5,5,0,0,0,4.1.19l75.93,43.84h96l-12.05,7H186.35l-.08,0L150.83,302.3a5,5,0,0,0-4.1.18c-1.24.72-1.24,1.88,0,2.59a4.94,4.94,0,0,0,4.49,0c1.12-.64,1.22-1.65.32-2.36l35-20.21h71.85l.08-.05,81.43-47,9,5.22-85.61,49.43H200.72l-.08.05L125,333.8H20.25L0,322.11v.82l20.06,11.58H125.21l.08-.05,47.46-27.4v16.22l-31.28,18.06a5,5,0,0,0-4.1.18,1.37,1.37,0,0,0,0,2.6,5,5,0,0,0,4.49,0c1.12-.65,1.22-1.65.32-2.37l31.28-18.06V306.74h-.16l27.62-15.94h62.6l.08-.05,86-49.68L359.92,247,193,343.39v17.42h.71v-17l167-96.39,12.69,7.33-86.13,49.72v8.89l-15.27,8.82v20.44l-29.61,17.1a5,5,0,0,0-4.1.18,1.87,1.87,0,0,0-.86.92h6.2a1.59,1.59,0,0,0-.53-.69L272.63,343V322.58l14.56-8.41v32.74l8.6,5-15.49,8.94h1.42l14.78-8.53,14.77,8.53h1.42L287.9,346.5V304.87L374,255.15l11.55,6.67L324.63,297a5,5,0,0,0-4.1.19c-1.24.71-1.24,1.87,0,2.59a4.94,4.94,0,0,0,4.49,0c1.12-.64,1.22-1.65.32-2.37l61-35.18,11.15,6.43-72.91,42.1H304.72a1.86,1.86,0,0,0-.87-.95,5,5,0,0,0-4.49,0,1.37,1.37,0,0,0,0,2.6,5,5,0,0,0,4.49,0,1.88,1.88,0,0,0,.87-.94h20l.09-.05,73.34-42.35,4.5,2.6,3.47-2,17.46,10.09v14l-14.43,8.34v0H386.51l-.09,0-24.85,14.35a5,5,0,0,0-4.09.19c-1.24.71-1.24,1.87,0,2.59a4.94,4.94,0,0,0,4.49,0c1.11-.65,1.21-1.65.32-2.37L386.7,302.8H408l-42.43,24.49a5,5,0,0,0-4.19.15c-1.24.71-1.24,1.87,0,2.59a5,5,0,0,0,4.49,0c1.09-.63,1.22-1.61.39-2.32l52.92-30.55v6.75l-31.48,18.18v12.83l-25.63,14.8a5,5,0,0,0-4.1.19,1.37,1.37,0,0,0,0,2.59,4.94,4.94,0,0,0,4.49,0c1.11-.64,1.21-1.65.32-2.37l25.63-14.79V322.5l31.48-18.18v-7.57l4.41-2.55V279.35l-17.46-10.09,11.48-6.62,35.94,20.75V307l-24.41,14.09a5,5,0,0,0-4.19.14,1.37,1.37,0,0,0,0,2.6,5,5,0,0,0,4.49,0c1.1-.62,1.22-1.6.4-2.31l23.71-13.69v19.06l-18.74,10.81v23.14h.71V338.08l18-10.4v33.13H455V283L419,262.23l12.89-7.45,47,27.13V346.5l22.58,13v1.27h.71v-1.68l-22.58-13V281.5l-47-27.13,9.55-5.51,63.4,36.6v55.12l35.05,20.23H542l-35.76-20.64V285.05l-63.4-36.6,15.48-8.94,105.49,60.9v27.42L600,348.71v-.83l-35.44-20.46V300l-59.33-34.26h46.92L600,293.37v-.82L552.34,265H504L459.08,239.1l18-10.39L515.68,251h62L600,263.88v-.82l-4.89-2.82H600v-.71h-6.12l-16-9.24h-62l-10.8-6.24h26.36l.08-.05,13.22-7.63h55.09l.18.1v-.81H546l14.89-8.59a5,5,0,0,0,4.1-.19,1.37,1.37,0,0,0,0-2.59,4.94,4.94,0,0,0-4.49,0c-1.12.64-1.22,1.65-.32,2.37l-28.9,16.68h-27.4l-26.06-15,9.63-5.56-6.2-3.58h18l23.54,13.59c-.9.72-.8,1.72.32,2.37a4.94,4.94,0,0,0,4.49,0c1.24-.72,1.24-1.88,0-2.59a5,5,0,0,0-4.1-.19l-24.06-13.89H480l-13.17-7.61,8.1-4.68h14.37l12.64-7.29h9.43l21.3,12.29c-1,.72-.88,1.75.26,2.41a4.94,4.94,0,0,0,4.49,0c1.24-.72,1.24-1.88,0-2.59a5,5,0,0,0-4-.22l-21.83-12.6h-9.81l-12.64,7.29H476.14l25.91-14.95h14l29.16,16.83H600v-.71H545.38l-29.15-16.84H501.86l-.09.05-35.67,20.6-9.37-5.4,40.32-23.28h28.44l23.45,13.54H600v-.71H549.14l-22.23-12.83H600V181H496.86l-.08.05L456,204.62l-10.63-6.14L501.61,166H600v-.71H528.3l71.7-41.4v-.82l-73.12,42.22H502.12l53.31-30.78v-6.78L580.93,113a5,5,0,0,0,4.1-.18c1.24-.72,1.24-1.88,0-2.59a4.94,4.94,0,0,0-4.49,0c-1.12.64-1.22,1.65-.32,2.36l-13.89,8V102L600,82.61v-.82l-34.38,19.84V121l-10.9,6.3v6.78l-53.74,31,.18.31-56.48,32.61-10.27-5.93,58-33.5V103.53L600,41.42V40.6L509.37,92.93V43.08L578.73,3l.15.1a4.94,4.94,0,0,0,4.49,0C584.61,2.41,584.61,1.25,583.37.54ZM486,222.74l-83.34,48.11-83.33-48.11,83.33-48.12Z"/></g></g></svg>