<svg xmlns="http://www.w3.org/2000/svg" viewBox="0 0 534.5 313.76"><defs><style>.cls-1{fill:#5ce1e6;opacity:0.1;}</style></defs><path id="Connections_2" class="cls-1" d="M534.5,39.7l-14.81,8.55V75.81l-131.6,76-10-5.78L446,106.82v-7l12-6.94V76.75l23.34-13.47a4,4,0,0,0,3.23-.15,1.08,1.08,0,0,0,0-2,3.88,3.88,0,0,0-3.54,0c-.88.51-1,1.3-.25,1.86L457.45,76.43V92.54L446,99.17V73.36l-.14-.08-6.63-3.83,39.79-23V20.64L507.26,4.32a4,4,0,0,0,3.23-.15,1.08,1.08,0,0,0,0-2,3.94,3.94,0,0,0-3.54,0c-.88.51-1,1.3-.25,1.87L478.43,20.32V46.15l-39.79,23-64.7-37.35V2.87a3.35,3.35,0,0,0,1.48-.4,1.08,1.08,0,0,0,0-2.05,3.92,3.92,0,0,0-3.53,0,1.08,1.08,0,0,0,0,2.05,3.35,3.35,0,0,0,1.48.4V32.1l.14.08,38.92,22.47H384.08L361.15,41.41c.71-.57.63-1.36-.25-1.87a3.94,3.94,0,0,0-3.54,0,1.08,1.08,0,0,0,0,2.05,4,4,0,0,0,3.23.14l23.34,13.48H413.4l32,18.49V106.5l-67.88,39.19-9.1-5.26,48-27.73a4,4,0,0,0,3.24-.15,1.08,1.08,0,0,0,0-2,3.88,3.88,0,0,0-3.54,0c-.88.51-1,1.3-.26,1.86l-48,27.74L359.08,135l57.46-33.18h15.62a1.44,1.44,0,0,0,.68.74,3.88,3.88,0,0,0,3.54,0,1.08,1.08,0,0,0,0-2,3.88,3.88,0,0,0-3.54,0,1.44,1.44,0,0,0-.68.74H416.39l-.06,0-57.81,33.37L355,132.66l-.14.08-2.59,1.5-13.77-8V115.23l11.38-6.57v0h17.84l19.66-11.34a4,4,0,0,0,3.23-.15,1.08,1.08,0,0,0,0-2,3.88,3.88,0,0,0-3.54,0c-.88.51-1,1.3-.26,1.86l-19.24,11.11H350.77l33.43-19.3a4,4,0,0,0,3.3-.12,1.08,1.08,0,0,0,0-2,3.86,3.86,0,0,0-3.53,0c-.86.5-1,1.26-.31,1.82L342,112.57v-5.32l24.81-14.33V82.81L387,71.14A4,4,0,0,0,390.2,71a1.08,1.08,0,0,0,0-2,3.88,3.88,0,0,0-3.54,0c-.88.5-1,1.3-.25,1.86L366.2,82.49V92.6l-24.81,14.33v6l-3.48,2v11.71l13.77,7.94-9.05,5.23L314.3,123.43V104.84l19.24-11.11a4,4,0,0,0,3.3-.11,1.08,1.08,0,0,0,0-2.05,3.94,3.94,0,0,0-3.54,0c-.86.5-1,1.27-.31,1.83L314.3,104.19v-15l14.77-8.53V52.39a3.58,3.58,0,0,0,1.49-.41,1.08,1.08,0,0,0,0-2,3.88,3.88,0,0,0-3.54,0,1.08,1.08,0,0,0,0,2,3.5,3.5,0,0,0,1.49.41V80.32l-14.21,8.2V38.7h-.56v85.05l28.33,16.36L331.91,146l-37-21.38V73.68L277.09,63.41V44.26l-15.72-9.08c.71-.56.63-1.35-.25-1.86a3.88,3.88,0,0,0-3.54,0,1.08,1.08,0,0,0,0,2,4,4,0,0,0,3.23.15l15.72,9.07V63.73L294.32,74v50.91l37,21.38-7.53,4.35-50-28.85V78.36l-.14-.09L229.48,52.74c.7-.57.63-1.36-.26-1.87a3.94,3.94,0,0,0-3.54,0,1.08,1.08,0,0,0,0,2,4,4,0,0,0,3.24.15l44.37,25.62v43.44l.14.08L323.26,151,311.06,158l-83.15-48V88.4l-.14-.08-69.6-40.19c.71-.56.63-1.36-.25-1.86a3.88,3.88,0,0,0-3.54,0,1.08,1.08,0,0,0,0,2,4,4,0,0,0,3.23.14l69.74,40.27v21.62l.14.08,46.63,26.92h-37l-42.82-24.72c.71-.57.63-1.36-.25-1.87a3.94,3.94,0,0,0-3.54,0,1.08,1.08,0,0,0,0,2,4,4,0,0,0,3.23.14l43.22,25h38.11l35.41,20.44-14.19,8.19L265.88,149H217l-55.58-32.09H130.6L118,109.61c.71-.56.63-1.36-.25-1.87a3.94,3.94,0,0,0-3.54,0,1.09,1.09,0,0,0,0,2.05,4,4,0,0,0,3.23.14l13,7.5h30.84l42,24.25H167l-17.47-10.09c.71-.57.63-1.36-.25-1.87a3.94,3.94,0,0,0-3.54,0,1.08,1.08,0,0,0,0,2.05,4,4,0,0,0,3.23.14l17.88,10.33h37.4l12.61,7.28h48.87l8.51,4.91H253.47l-.07,0-10.42,6H199.56l-12.24-7.07H162.76a1.46,1.46,0,0,0-.69-.74,3.88,3.88,0,0,0-3.54,0,1.08,1.08,0,0,0,0,2,3.94,3.94,0,0,0,3.54,0,1.46,1.46,0,0,0,.69-.74h24.41l12.24,7.07H242l-11.73,6.77a4,4,0,0,0-3.23.15,1.08,1.08,0,0,0,0,2,3.88,3.88,0,0,0,3.54,0c.88-.51,1-1.3.25-1.86L253.62,155h21.59l20.54,11.85-7.59,4.38.42.25,4.47,2.57h-14.2l-18.56-10.71c.71-.57.63-1.36-.25-1.87a3.94,3.94,0,0,0-3.54,0,1.08,1.08,0,0,0,0,2.05,4,4,0,0,0,3.23.14l19,11H294l10.38,6L298,184.3H286.69l-.07,0-9.89,5.71h-7.44l-16.78-9.69c.75-.57.69-1.38-.21-1.9a3.94,3.94,0,0,0-3.54,0,1.08,1.08,0,0,0,0,2,3.94,3.94,0,0,0,3.18.17l17.2,9.94h7.74l.06,0,9.9-5.71H297l-20.41,11.79h-11l-23-13.27h-69.3l-43-24.82c.74-.57.68-1.37-.22-1.89a3.94,3.94,0,0,0-3.54,0,1.08,1.08,0,0,0,0,2,4,4,0,0,0,3.19.17l43.41,25.06h69.3l23,13.27h11.33l.06,0L305,180.93l7.38,4.26-31.78,18.35H258.15l-18.49-10.68H192.21a1.44,1.44,0,0,0-.69-.75,3.94,3.94,0,0,0-3.54,0,1.08,1.08,0,0,0,0,2,3.94,3.94,0,0,0,3.54,0,1.46,1.46,0,0,0,.69-.74h47.3L257,203.54H190.16l-.06,0-63.73,36.79a4,4,0,0,0-3.23.15,1.08,1.08,0,0,0,0,2,3.94,3.94,0,0,0,3.54,0c.88-.51,1-1.3.25-1.87l63.38-36.59h90.41l.06,0,32.12-18.54,8.38,4.84L277,215.94H199l-.07,0-68.32,39.44H51L4.53,228.62c.7-.56.62-1.36-.26-1.86a3.88,3.88,0,0,0-3.54,0,1.08,1.08,0,0,0,0,2A4,4,0,0,0,4,229L50.8,256h79.91l.07,0L199.1,216.5h56.83l-83.45,48.18v12.69l-33.29,19.22a4,4,0,0,0-3.23.14,1.08,1.08,0,0,0,0,2,3.94,3.94,0,0,0,3.54,0c.88-.51,1-1.31.25-1.87L173,277.69V265l84-48.51h19.5l-42,24.26v5.34l-20.1,11.61a4,4,0,0,0-3.23.15,1.08,1.08,0,0,0,0,2,3.94,3.94,0,0,0,3.54,0c.88-.51,1-1.3.25-1.87l11-6.32v14.65l-63.24,36.51a4,4,0,0,0-3.23.15,1.08,1.08,0,0,0,0,2,3.88,3.88,0,0,0,3.54,0c.88-.51,1-1.3.25-1.86l63.24-36.51v-15.3l8.59-5v-5.35l42.36-24.45-.14-.25,44.52-25.7,8.09,4.67-45.73,26.41V265.2L200.1,313.76h1.12l69.64-40.21v39.29l-1.59.92h1.12l1-.6V273.23l13.35-7.71V222.08l45.73-26.4,7.12,4.11-35.26,20.36V244l.14.08,40.09,23.15v8.08l-22.67,13.09a4,4,0,0,0-3.23.14,1.08,1.08,0,0,0,0,2.05,3.94,3.94,0,0,0,3.54,0c.88-.51,1-1.3.25-1.87l22.67-13.09v-8.72l-.14-.08-40.09-23.15V220.47l26.64-15.38V215l-12.21,7.05a4,4,0,0,0-3.23.15,1.08,1.08,0,0,0,0,2,3.88,3.88,0,0,0,3.54,0c.88-.51,1-1.3.25-1.86l12.21-7V204.77l8.05-4.66,9.53,5.51v17.27l-18,10.38v11.94l.14.09,37.84,21.84c-.71.57-.63,1.36.25,1.87a3.94,3.94,0,0,0,3.54,0,1.08,1.08,0,0,0,0-2.05,4,4,0,0,0-3.23-.14l-38-21.93v-11.3l17.41-10.05v11.91L371,248.9c-.71.56-.63,1.35.25,1.86a3.88,3.88,0,0,0,3.54,0,1.08,1.08,0,0,0,0-2,4,4,0,0,0-3.23-.15l-23.29-13.44V205.94l6.7,3.86.14-.08L366,203.44l10,5.76v14l26.55,15.32v13.21a3.54,3.54,0,0,0-1.49.41,1.08,1.08,0,0,0,0,2,3.88,3.88,0,0,0,3.54,0,1.08,1.08,0,0,0,0-2,3.58,3.58,0,0,0-1.49-.41V238.22l-26.55-15.33V209.53l43,24.81v26.3L396.21,274.1H374.82l-.06,0-36.71,21.19a4,4,0,0,0-3.23.15,1.08,1.08,0,0,0,0,2,3.88,3.88,0,0,0,3.54,0c.88-.5,1-1.3.26-1.86l36.35-21h20.27l-67.43,38.93a4,4,0,0,0-3.23.14l0,0h4.09L420.08,261V234l-.14-.08-53.38-30.82,10.74-6.2,91.14,52.62v31.4l31.14,18c-.71.56-.63,1.35.25,1.86a3.88,3.88,0,0,0,3.54,0,1.08,1.08,0,0,0,0-2,4,4,0,0,0-3.23-.15l-31.14-18v-31.4l-.14-.08-91-52.54,10.23-5.91,90.14,52H532l2.52,1.46v-.65l-2.37-1.37H478.38l-76.09-43.93h15.3l26,15h20l.07,0,27.74-16a4,4,0,0,0,3.23-.15,1.08,1.08,0,0,0,0-2,3.88,3.88,0,0,0-3.54,0c-.88.51-1,1.3-.25,1.86l-27.4,15.82h-19.7l-26-15H401.32l-12.67-7.31L416,174.59l7.77,4.49v11.76l19.72,11.39c-.71.56-.63,1.35.25,1.86a3.88,3.88,0,0,0,3.54,0,1.08,1.08,0,0,0,0-2,4,4,0,0,0-3.23-.15l-19.72-11.38V179.4l21,12.14h10l.07,0,11.87-6.86a4,4,0,0,0,3.23-.15,1.08,1.08,0,0,0,0-2,3.94,3.94,0,0,0-3.54,0c-.88.51-1,1.3-.25,1.87L455.12,191h-9.66l-28.95-16.71,5.26-3-.42-.24L405,161.54l7.86-4.53h11.88l8.51,4.91c-.68.56-.59,1.34.28,1.84a3.94,3.94,0,0,0,3.54,0,1.08,1.08,0,0,0,0-2,3.92,3.92,0,0,0-3.27-.13l-8.91-5.14H413.82l20-11.57L481,172.1h33.93l.06,0,19.11-11a2.5,2.5,0,0,0,.39.11v-2.58a3.1,3.1,0,0,0-.7.28c-.88.51-1,1.3-.26,1.87l-18.75,10.83H481.16l-36.36-21h15.56l15.22,8.79c-.71.56-.63,1.35.25,1.86a3.88,3.88,0,0,0,3.54,0,1.08,1.08,0,0,0,0-2,4,4,0,0,0-3.23-.15l-15.63-9H443.83l-9.41-5.43,23.94-13.82H534.5v-.56H459.33l9.49-5.48h56.64l.06,0,9-5.18v-.65l-9.19,5.31H468.67l-.06,0-64.18,37.05-7.13-4.11,67.48-39h49.35l.06,0,20.31-11.72v-.65L514,117.59H464.63l-.07,0-67.82,39.15-8.09-4.67,131.6-76V48.57l14.25-8.22ZM420.65,171.23,355,209.16l-65.69-37.93L355,133.31Z"/></svg>