<svg xmlns="http://www.w3.org/2000/svg" xmlns:xlink="http://www.w3.org/1999/xlink" viewBox="0 0 346.15 300.93"><defs><style>.cls-1,.cls-11,.cls-16,.cls-20,.cls-28,.cls-32,.cls-35,.cls-41,.cls-46,.cls-47,.cls-49,.cls-51,.cls-6{mix-blend-mode:lighten;}.cls-1,.cls-11,.cls-16,.cls-20,.cls-28,.cls-32,.cls-35,.cls-41,.cls-46,.cls-49,.cls-50,.cls-51,.cls-6{opacity:0.5;}.cls-1{fill:url(#radial-gradient);}.cls-2{isolation:isolate;}.cls-3,.cls-4,.cls-48,.cls-50,.cls-9{fill:#5ce1e6;}.cls-4{opacity:0.1;}.cls-5{fill:url(#linear-gradient);}.cls-6{fill:url(#radial-gradient-2);}.cls-24,.cls-31,.cls-7{fill:#00537f;}.cls-8{fill:url(#linear-gradient-2);}.cls-18,.cls-37,.cls-9{opacity:0.4;}.cls-10{fill:url(#linear-gradient-3);}.cls-11{fill:url(#radial-gradient-3);}.cls-12{fill:#fff;}.cls-13{fill:url(#linear-gradient-4);}.cls-14{fill:#5351af;}.cls-15{fill:url(#linear-gradient-5);}.cls-16{fill:url(#radial-gradient-4);}.cls-17{fill:url(#linear-gradient-6);}.cls-18,.cls-52{fill:#42e8e0;}.cls-19{fill:url(#linear-gradient-7);}.cls-20{fill:url(#radial-gradient-5);}.cls-21{fill:url(#linear-gradient-9);}.cls-22{fill:#152b3a;}.cls-23{fill:url(#linear-gradient-10);}.cls-24{opacity:0.51;}.cls-25,.cls-31,.cls-40{opacity:0.3;}.cls-26{clip-path:url(#clip-path);}.cls-27{fill:url(#linear-gradient-11);}.cls-28{fill:url(#radial-gradient-7);}.cls-29{fill:url(#linear-gradient-12);}.cls-30{fill:url(#linear-gradient-13);}.cls-32{fill:url(#radial-gradient-8);}.cls-33{fill:url(#linear-gradient-14);}.cls-34{fill:url(#linear-gradient-15);}.cls-35{fill:url(#radial-gradient-9);}.cls-36{fill:url(#linear-gradient-16);}.cls-37{fill:url(#linear-gradient-17);}.cls-38{fill:url(#linear-gradient-18);}.cls-39{fill:url(#linear-gradient-19);}.cls-40{fill:url(#linear-gradient-21);}.cls-41{fill:url(#linear-gradient-22);}.cls-42{fill:url(#linear-gradient-23);}.cls-43{fill:url(#linear-gradient-24);}.cls-44{fill:url(#linear-gradient-25);}.cls-45{fill:url(#linear-gradient-26);}.cls-46{fill:url(#radial-gradient-10);}.cls-47,.cls-48{opacity:0.8;}.cls-47{fill:url(#linear-gradient-27);}.cls-49{fill:url(#radial-gradient-11);}.cls-51{fill:url(#radial-gradient-12);}</style><radialGradient id="radial-gradient" cx="150.8" cy="149.34" r="162.82" gradientUnits="userSpaceOnUse"><stop offset="0" stop-color="#5ce1e6"/><stop offset="0.04" stop-color="#54d5dd"/><stop offset="0.18" stop-color="#3aadc0"/><stop offset="0.33" stop-color="#258ca9"/><stop offset="0.49" stop-color="#157396"/><stop offset="0.64" stop-color="#096189"/><stop offset="0.81" stop-color="#025682"/><stop offset="1" stop-color="#00537f"/></radialGradient><linearGradient id="linear-gradient" x1="57.2" y1="145.58" x2="157.32" y2="145.58" gradientUnits="userSpaceOnUse"><stop offset="0" stop-color="#5ce1e6"/><stop offset="0.1" stop-color="#4dc9d5"/><stop offset="0.3" stop-color="#319fb6"/><stop offset="0.49" stop-color="#1c7e9e"/><stop offset="0.68" stop-color="#0c668d"/><stop offset="0.85" stop-color="#035883"/><stop offset="1" stop-color="#00537f"/></linearGradient><radialGradient id="radial-gradient-2" cx="154.8" cy="160.87" r="58.19" gradientUnits="userSpaceOnUse"><stop offset="0" stop-color="#5ce1e6"/><stop offset="0.23" stop-color="#3eb3c5"/><stop offset="0.46" stop-color="#248aa7"/><stop offset="0.68" stop-color="#106c91"/><stop offset="0.87" stop-color="#045a84"/><stop offset="1" stop-color="#00537f"/></radialGradient><linearGradient id="linear-gradient-2" x1="60.84" y1="128.97" x2="154.04" y2="128.97" gradientUnits="userSpaceOnUse"><stop offset="0" stop-color="#00537f"/><stop offset="0.11" stop-color="#055682"/><stop offset="0.24" stop-color="#135f89"/><stop offset="0.38" stop-color="#2b6f96"/><stop offset="0.53" stop-color="#4c84a8"/><stop offset="0.68" stop-color="#77a0bf"/><stop offset="0.84" stop-color="#abc1dc"/><stop offset="1" stop-color="#e8e8fc"/><stop offset="1" stop-color="#e9e9fd"/></linearGradient><linearGradient id="linear-gradient-3" x1="57.2" y1="122.85" x2="157.32" y2="122.85" xlink:href="#linear-gradient"/><radialGradient id="radial-gradient-3" cx="154.8" cy="138.14" r="58.19" xlink:href="#radial-gradient-2"/><linearGradient id="linear-gradient-4" x1="60.84" y1="106.24" x2="154.04" y2="106.24" xlink:href="#linear-gradient-2"/><linearGradient id="linear-gradient-5" x1="57.2" y1="100.12" x2="157.32" y2="100.12" xlink:href="#linear-gradient"/><radialGradient id="radial-gradient-4" cx="154.8" cy="115.41" r="58.19" xlink:href="#radial-gradient-2"/><linearGradient id="linear-gradient-6" x1="60.84" y1="83.51" x2="154.04" y2="83.51" xlink:href="#linear-gradient-2"/><linearGradient id="linear-gradient-7" x1="57.2" y1="77.39" x2="157.32" y2="77.39" xlink:href="#linear-gradient"/><radialGradient id="radial-gradient-5" cx="154.8" cy="92.68" r="58.19" xlink:href="#radial-gradient-2"/><linearGradient id="linear-gradient-9" x1="57.2" y1="62.2" x2="157.32" y2="62.2" gradientUnits="userSpaceOnUse"><stop offset="0" stop-color="#00537f"/><stop offset="0.15" stop-color="#035883"/><stop offset="0.32" stop-color="#0c668d"/><stop offset="0.51" stop-color="#1c7e9e"/><stop offset="0.7" stop-color="#319fb6"/><stop offset="0.9" stop-color="#4dc9d5"/><stop offset="1" stop-color="#5ce1e6"/></linearGradient><linearGradient id="linear-gradient-10" x1="71.04" y1="199.43" x2="324.7" y2="199.43" xlink:href="#linear-gradient"/><clipPath id="clip-path"><path class="cls-1" d="M154.06,260.37l-77.57-44.8c-3.47-2-3-5.49,1-7.79L228,120.86c4-2.31,10.05-2.56,13.51-.56l77.57,44.8c3.47,2,3,5.49-1,7.8L167.57,259.81C163.57,262.12,157.52,262.37,154.06,260.37Z"/></clipPath><linearGradient id="linear-gradient-11" x1="57.2" y1="237.27" x2="157.32" y2="237.27" xlink:href="#linear-gradient"/><radialGradient id="radial-gradient-7" cx="154.8" cy="252.56" r="58.19" xlink:href="#radial-gradient-2"/><linearGradient id="linear-gradient-12" x1="60.84" y1="220.66" x2="154.04" y2="220.66" xlink:href="#linear-gradient-9"/><linearGradient id="linear-gradient-13" x1="57.2" y1="214.54" x2="157.32" y2="214.54" xlink:href="#linear-gradient"/><radialGradient id="radial-gradient-8" cx="154.8" cy="229.83" r="58.19" xlink:href="#radial-gradient-2"/><linearGradient id="linear-gradient-14" x1="60.84" y1="197.93" x2="154.04" y2="197.93" xlink:href="#linear-gradient-9"/><linearGradient id="linear-gradient-15" x1="157.32" y1="191.81" x2="57.2" y2="191.81" xlink:href="#linear-gradient"/><radialGradient id="radial-gradient-9" cx="154.8" cy="207.1" r="58.19" xlink:href="#radial-gradient-2"/><linearGradient id="linear-gradient-16" x1="60.84" y1="175.2" x2="154.04" y2="175.2" xlink:href="#linear-gradient-9"/><linearGradient id="linear-gradient-17" x1="57.2" y1="177.91" x2="157.32" y2="177.91" xlink:href="#linear-gradient"/><linearGradient id="linear-gradient-18" x1="78.98" y1="148.49" x2="135.54" y2="148.49" xlink:href="#linear-gradient"/><linearGradient id="linear-gradient-19" x1="57.2" y1="169.08" x2="157.32" y2="169.08" xlink:href="#linear-gradient"/><linearGradient id="linear-gradient-21" x1="107.26" y1="169.08" x2="157.32" y2="169.08" xlink:href="#linear-gradient"/><linearGradient id="linear-gradient-22" x1="157.32" y1="169.08" x2="107.26" y2="169.08" xlink:href="#linear-gradient"/><linearGradient id="linear-gradient-23" x1="57.2" y1="153.89" x2="157.32" y2="153.89" xlink:href="#linear-gradient"/><linearGradient id="linear-gradient-24" x1="57.2" y1="167.96" x2="157.32" y2="167.96" xlink:href="#linear-gradient"/><linearGradient id="linear-gradient-25" x1="78.08" y1="144.41" x2="135.72" y2="144.41" xlink:href="#linear-gradient"/><linearGradient id="linear-gradient-26" x1="60.84" y1="152.47" x2="154.04" y2="152.47" xlink:href="#linear-gradient"/><radialGradient id="radial-gradient-10" cx="150.8" cy="147.34" r="162.82" xlink:href="#radial-gradient"/><linearGradient id="linear-gradient-27" x1="233.2" y1="235.32" x2="162.4" y2="141.36" xlink:href="#radial-gradient"/><radialGradient id="radial-gradient-11" cx="209.21" cy="109.29" r="196.21" xlink:href="#radial-gradient"/><radialGradient id="radial-gradient-12" cx="246.62" cy="283.53" r="196.21" xlink:href="#radial-gradient"/></defs><g class="cls-2"><g id="Layer_2" data-name="Layer 2"><g id="Ñëîé_1" data-name="Ñëîé 1"><polygon class="cls-3" points="302.6 239.21 297.17 236.08 298.36 235.39 303.79 238.53 302.6 239.21"/><polygon class="cls-3" points="307.24 241.89 304.52 240.32 305.71 239.64 308.42 241.21 307.24 241.89"/><polygon class="cls-3" points="301.43 241.74 299.11 240.41 300.3 239.72 302.61 241.06 301.43 241.74"/><polygon class="cls-3" points="305.31 243.98 302.59 242.41 303.77 241.73 306.49 243.3 305.31 243.98"/><polygon class="cls-3" points="307.01 248.17 296.34 242.01 297.52 241.33 308.19 247.49 307.01 248.17"/><polygon class="cls-3" points="276.55 260.37 265.88 254.21 267.06 253.52 277.73 259.69 276.55 260.37"/><polygon class="cls-3" points="280.65 262.74 277.94 261.17 279.12 260.49 281.84 262.06 280.65 262.74"/><polygon class="cls-3" points="295.87 244.95 293.56 243.61 294.74 242.93 297.06 244.27 295.87 244.95"/><polygon class="cls-3" points="299.75 247.19 297.03 245.62 298.22 244.94 300.94 246.5 299.75 247.19"/><polygon class="cls-3" points="296.65 248.6 290.78 245.22 291.97 244.53 297.83 247.92 296.65 248.6"/><polygon class="cls-3" points="300.58 250.87 297.86 249.31 299.05 248.62 301.76 250.19 300.58 250.87"/><polygon class="cls-3" points="304.53 253.15 301.81 251.59 302.99 250.9 305.71 252.47 304.53 253.15"/><polygon class="cls-3" points="310.9 256.83 305.76 253.86 306.94 253.18 312.08 256.15 310.9 256.83"/><polygon class="cls-3" points="302.26 258.26 299.55 256.69 300.73 256.01 303.45 257.58 302.26 258.26"/><polygon class="cls-3" points="308.63 261.94 303.5 258.97 304.68 258.29 309.82 261.25 308.63 261.94"/><polygon class="cls-3" points="287.94 249.99 285.23 248.42 286.41 247.74 289.13 249.31 287.94 249.99"/><polygon class="cls-3" points="291.89 252.27 289.18 250.7 290.36 250.02 293.08 251.59 291.89 252.27"/><polygon class="cls-3" points="298.26 255.95 293.12 252.98 294.31 252.3 299.45 255.27 298.26 255.95"/><polygon class="cls-3" points="308.9 258.88 306.18 257.31 307.37 256.63 310.08 258.2 308.9 258.88"/><polygon class="cls-3" points="312.85 261.16 310.13 259.6 311.31 258.91 314.03 260.48 312.85 261.16"/><polygon class="cls-3" points="284.9 265.19 282.19 263.63 283.37 262.94 286.09 264.51 284.9 265.19"/><polygon class="cls-3" points="291.28 268.87 286.14 265.9 287.32 265.22 292.46 268.19 291.28 268.87"/><polygon class="cls-3" points="282.39 253.2 279.67 251.63 280.86 250.95 283.57 252.52 282.39 253.2"/><polygon class="cls-3" points="288.76 256.88 283.62 253.91 284.81 253.23 289.94 256.19 288.76 256.88"/><polygon class="cls-3" points="285.58 268.79 282.86 267.22 284.05 266.54 286.76 268.11 285.58 268.79"/><polygon class="cls-3" points="291.95 272.47 286.81 269.5 288 268.82 293.13 271.79 291.95 272.47"/><polygon class="cls-3" points="315.13 252.86 312.41 251.29 313.6 250.61 316.31 252.18 315.13 252.86"/><polygon class="cls-3" points="311.02 250.49 308.31 248.92 309.49 248.24 312.21 249.81 311.02 250.49"/><polygon class="cls-3" points="321.5 256.54 316.36 253.57 317.55 252.89 322.69 255.86 321.5 256.54"/><polygon class="cls-3" points="290.45 248.24 288 246.82 289.19 246.14 291.64 247.55 290.45 248.24"/><polygon class="cls-3" points="297.72 252.43 291.76 248.99 292.95 248.31 298.91 251.75 297.72 252.43"/><polygon class="cls-3" points="304.99 256.63 299.03 253.19 300.22 252.5 306.17 255.94 304.99 256.63"/><polygon class="cls-3" points="288.46 253.5 282.5 250.06 283.69 249.37 289.64 252.81 288.46 253.5"/><polygon class="cls-3" points="291.6 255.31 289.77 254.25 290.95 253.57 292.78 254.63 291.6 255.31"/><polygon class="cls-3" points="294.75 257.13 292.92 256.07 294.1 255.39 295.93 256.44 294.75 257.13"/><polygon class="cls-3" points="300.56 260.49 296.06 257.89 297.25 257.2 301.75 259.8 300.56 260.49"/><polygon class="cls-3" points="301.79 261.19 297.29 258.59 298.47 257.91 302.97 260.51 301.79 261.19"/><polygon class="cls-3" points="313.94 258.59 312.11 257.53 313.29 256.85 315.12 257.9 313.94 258.59"/><polygon class="cls-3" points="270.91 263.53 265.04 260.14 266.23 259.46 272.09 262.84 270.91 263.53"/><polygon class="cls-3" points="274.84 265.8 272.12 264.23 273.31 263.54 276.02 265.11 274.84 265.8"/><polygon class="cls-3" points="278.79 268.07 276.07 266.51 277.25 265.82 279.97 267.39 278.79 268.07"/><polygon class="cls-3" points="285.16 271.75 280.02 268.79 281.2 268.1 286.34 271.07 285.16 271.75"/><polygon class="cls-3" points="276.39 273.11 273.67 271.54 274.86 270.85 277.57 272.42 276.39 273.11"/><polygon class="cls-3" points="282.76 276.79 277.62 273.82 278.81 273.13 283.95 276.1 282.76 276.79"/><polygon class="cls-3" points="262.2 264.92 259.49 263.35 260.67 262.66 263.39 264.23 262.2 264.92"/><polygon class="cls-3" points="266.15 267.19 263.43 265.63 264.62 264.94 267.33 266.51 266.15 267.19"/><polygon class="cls-3" points="272.52 270.87 267.38 267.91 268.57 267.22 273.71 270.19 272.52 270.87"/><polygon class="cls-3" points="264.71 263.16 262.26 261.74 263.45 261.06 265.9 262.47 264.71 263.16"/><polygon class="cls-3" points="271.98 267.35 266.02 263.92 267.21 263.23 273.17 266.67 271.98 267.35"/><polygon class="cls-3" points="279.25 271.55 273.29 268.11 274.48 267.43 280.43 270.87 279.25 271.55"/><polygon class="cls-3" points="257.91 265.65 251.96 262.21 253.14 261.52 259.1 264.96 257.91 265.65"/><polygon class="cls-3" points="261.05 267.46 259.22 266.4 260.41 265.72 262.24 266.77 261.05 267.46"/><polygon class="cls-3" points="264.2 269.27 262.37 268.22 263.56 267.54 265.38 268.59 264.2 269.27"/><polygon class="cls-3" points="270.02 272.63 265.52 270.04 266.7 269.35 271.2 271.95 270.02 272.63"/><polygon class="cls-3" points="271.24 273.34 266.74 270.74 267.93 270.06 272.43 272.66 271.24 273.34"/><polygon class="cls-3" points="269.73 259.64 267.9 258.58 269.09 257.9 270.92 258.96 269.73 259.64"/><polygon class="cls-3" points="275.55 263 271.05 260.4 272.23 259.72 276.73 262.32 275.55 263"/><polygon class="cls-3" points="281.49 266.43 276.99 263.83 278.18 263.15 282.68 265.75 281.49 266.43"/><polygon class="cls-3" points="274.06 251.6 272.23 250.54 273.41 249.86 275.24 250.91 274.06 251.6"/><polygon class="cls-3" points="279.87 254.96 275.37 252.36 276.56 251.67 281.06 254.27 279.87 254.96"/><polygon class="cls-3" points="285.82 258.39 281.32 255.79 282.5 255.1 287 257.7 285.82 258.39"/><polygon class="cls-4" points="244.71 126.69 197.34 99.34 261.38 62.37 308.74 89.72 244.71 126.69"/><path class="cls-3" d="M107.26,185.71c-12.94,0-25.88-2.84-35.73-8.53-9.58-5.53-14.85-12.89-14.85-20.73s5.27-15.2,14.85-20.73c19.7-11.37,51.76-11.37,71.46,0,9.58,5.53,14.85,12.89,14.85,20.73s-5.27,15.2-14.85,20.73C133.14,182.87,120.2,185.71,107.26,185.71Zm0-58.18c-12.88,0-25.75,2.83-35.56,8.49C62.24,141.49,57,148.74,57,156.45s5.21,15,14.67,20.43c19.61,11.32,51.51,11.32,71.12,0l.09.15-.09-.15c9.46-5.46,14.68-12.72,14.68-20.43s-5.22-15-14.68-20.43C133,130.36,120.14,127.53,107.26,127.53Z"/><rect class="cls-3" x="132.54" y="122.62" width="96.72" height="0.35" transform="translate(-36.53 99.81) rotate(-28.13)"/><path class="cls-5" d="M149.9,129.15a39.15,39.15,0,0,0-7.24-5.29,60,60,0,0,0-14.79-5.9c10.3,6.53,10,16.65-.94,23-11.26,6.49-29.51,6.49-40.76,0-10.56-6.1-11.21-15.74-2-22.28a58.17,58.17,0,0,0-12.34,5.22,39.15,39.15,0,0,0-7.24,5.29H57.2V144.3h0c0,7.4,4.89,14.8,14.66,20.44,19.55,11.29,51.25,11.29,70.8,0,9.78-5.64,14.66-13,14.66-20.44V129.15Z"/><path class="cls-6" d="M142.66,123.86a60,60,0,0,0-14.79-5.9c10.3,6.53,10,16.65-.94,23-5.45,3.14-12.53,4.76-19.67,4.86V173.2c12.81,0,25.63-2.82,35.4-8.46s14.66-13,14.66-20.44V129.15H149.9A39.15,39.15,0,0,0,142.66,123.86Z"/><path class="cls-7" d="M142.66,110c-19.55-11.29-51.25-11.29-70.8,0s-19.55,29.59,0,40.88,51.25,11.28,70.8,0S162.21,121.25,142.66,110Zm-15.38,32.2c-11.25,6.5-29.5,6.5-40.75,0s-11.26-17,0-23.53,29.51-6.5,40.76,0S138.54,135.67,127.28,142.16Z"/><path class="cls-3" d="M142.66,149.28c-19.55,11.28-51.25,11.28-70.8,0-9.43-5.45-14.31-12.53-14.64-19.66-.36,7.65,4.52,15.37,14.64,21.22,19.55,11.28,51.25,11.28,70.8,0,10.12-5.85,15-13.57,14.64-21.22C157,136.75,152.09,143.83,142.66,149.28Z"/><path class="cls-3" d="M127.28,117.07c-11.25-6.5-29.5-6.5-40.76,0-6,3.45-8.77,8-8.4,12.55.32-4,3.12-7.94,8.4-11,11.26-6.5,29.51-6.5,40.76,0,5.29,3.05,8.09,7,8.41,11C136.06,125.1,133.25,120.52,127.28,117.07Z"/><path class="cls-8" d="M140.39,110c-18.2-10.51-47.71-10.51-65.9,0s-18.2,27.54,0,38.05,47.7,10.51,65.9,0S158.59,120.45,140.39,110Zm-13.27,30.39c-10.87,6.27-28.49,6.27-39.36,0s-10.87-16.46,0-22.73,28.49-6.28,39.36,0S138,134.06,127.12,140.34Z"/><path class="cls-9" d="M149.9,115.25a39.15,39.15,0,0,0-7.24-5.29,59.6,59.6,0,0,0-14.79-5.9c10.3,6.53,10,16.64-.94,23-11.26,6.5-29.51,6.5-40.76,0-10.56-6.09-11.21-15.74-2-22.27A58.17,58.17,0,0,0,71.86,110a39.15,39.15,0,0,0-7.24,5.29H57.2V130.4h0c0,7.4,4.89,14.79,14.66,20.44,19.55,11.28,51.25,11.28,70.8,0,9.78-5.65,14.66-13,14.66-20.44V115.25Z"/><path class="cls-10" d="M149.9,106.42a39.15,39.15,0,0,0-7.24-5.29,59.6,59.6,0,0,0-14.79-5.9c10.3,6.53,10,16.64-.94,23-11.26,6.49-29.51,6.49-40.76,0-10.56-6.09-11.21-15.74-2-22.27a58.17,58.17,0,0,0-12.34,5.22,39.15,39.15,0,0,0-7.24,5.29H57.2v15.15h0c0,7.4,4.89,14.79,14.66,20.44,19.55,11.29,51.25,11.29,70.8,0,9.78-5.65,14.66-13,14.66-20.44V106.42Z"/><path class="cls-11" d="M142.66,101.13a59.6,59.6,0,0,0-14.79-5.9c10.3,6.53,10,16.64-.94,23-5.45,3.14-12.53,4.76-19.67,4.86v27.42c12.81,0,25.63-2.82,35.4-8.46s14.66-13,14.66-20.44V106.42H149.9A39.15,39.15,0,0,0,142.66,101.13Z"/><path class="cls-7" d="M142.66,87.23c-19.55-11.29-51.25-11.29-70.8,0s-19.55,29.59,0,40.87,51.25,11.29,70.8,0S162.21,98.52,142.66,87.23Zm-15.38,32.2c-11.25,6.5-29.5,6.5-40.75,0s-11.26-17,0-23.53,29.51-6.5,40.76,0S138.54,112.93,127.28,119.43Z"/><path class="cls-3" d="M142.66,126.55c-19.55,11.28-51.25,11.28-70.8,0C62.43,121.1,57.55,114,57.22,106.89c-.36,7.65,4.52,15.37,14.64,21.21,19.55,11.29,51.25,11.29,70.8,0,10.12-5.85,15-13.57,14.64-21.22C157,114,152.09,121.1,142.66,126.55Z"/><path class="cls-12" d="M127.28,94.34c-11.25-6.5-29.5-6.5-40.76,0-6,3.45-8.77,8-8.4,12.55.32-4,3.12-7.94,8.4-11,11.26-6.5,29.51-6.5,40.76,0,5.29,3,8.09,7,8.41,11C136.06,102.37,133.25,97.79,127.28,94.34Z"/><path class="cls-13" d="M140.39,87.22c-18.2-10.51-47.71-10.51-65.9,0s-18.2,27.55,0,38.06,47.7,10.5,65.9,0S158.59,97.72,140.39,87.22ZM127.12,117.6c-10.87,6.28-28.49,6.28-39.36,0s-10.87-16.45,0-22.72,28.49-6.28,39.36,0S138,111.33,127.12,117.6Z"/><path class="cls-9" d="M149.9,92.52a39.15,39.15,0,0,0-7.24-5.29,60,60,0,0,0-14.79-5.91c10.3,6.53,10,16.65-.94,23-11.26,6.5-29.51,6.5-40.76,0C75.61,98.19,75,88.54,84.2,82a58.17,58.17,0,0,0-12.34,5.22,39.15,39.15,0,0,0-7.24,5.29H57.2v15.15h0c0,7.39,4.89,14.79,14.66,20.43,19.55,11.29,51.25,11.29,70.8,0,9.78-5.65,14.66-13.05,14.66-20.44V92.52Z"/><path class="cls-14" d="M87.26,88.39c11-6.37,28.95-6.37,40,0a21.87,21.87,0,0,1,4.5,3.39c6.25-6.25,4.76-14.37-4.5-19.72-11.05-6.37-28.95-6.37-40,0C78,77.41,76.51,85.53,82.76,91.78A21.87,21.87,0,0,1,87.26,88.39Z"/><path class="cls-15" d="M149.9,83.69a39.15,39.15,0,0,0-7.24-5.29,59.6,59.6,0,0,0-14.79-5.9c10.3,6.53,10,16.64-.94,23-11.26,6.5-29.51,6.5-40.76,0C75.61,89.36,75,79.71,84.2,73.18A58.17,58.17,0,0,0,71.86,78.4a39.15,39.15,0,0,0-7.24,5.29H57.2V98.84h0c0,7.4,4.89,14.79,14.66,20.44,19.55,11.28,51.25,11.28,70.8,0,9.78-5.65,14.66-13,14.66-20.44V83.69Z"/><path class="cls-16" d="M142.66,78.4a59.6,59.6,0,0,0-14.79-5.9c10.3,6.53,10,16.64-.94,23-5.45,3.15-12.53,4.77-19.67,4.87v27.42c12.81,0,25.63-2.82,35.4-8.46s14.66-13,14.66-20.44V83.69H149.9A39.15,39.15,0,0,0,142.66,78.4Z"/><path class="cls-7" d="M142.66,64.5c-19.55-11.29-51.25-11.29-70.8,0s-19.55,29.59,0,40.87,51.25,11.29,70.8,0S162.21,75.79,142.66,64.5ZM127.28,96.7c-11.25,6.5-29.5,6.5-40.75,0s-11.26-17,0-23.53,29.51-6.5,40.76,0S138.54,90.2,127.28,96.7Z"/><path class="cls-3" d="M142.66,103.81c-19.55,11.29-51.25,11.29-70.8,0-9.43-5.44-14.31-12.52-14.64-19.65-.36,7.65,4.52,15.37,14.64,21.21,19.55,11.29,51.25,11.29,70.8,0,10.12-5.84,15-13.56,14.64-21.21C157,91.29,152.09,98.37,142.66,103.81Z"/><path class="cls-3" d="M127.28,71.61c-11.25-6.5-29.5-6.5-40.76,0-6,3.45-8.77,8-8.4,12.55.32-4,3.12-7.94,8.4-11,11.26-6.5,29.51-6.5,40.76,0,5.29,3,8.09,7,8.41,11C136.06,79.64,133.25,75.06,127.28,71.61Z"/><path class="cls-17" d="M140.39,64.48c-18.2-10.5-47.71-10.5-65.9,0s-18.2,27.55,0,38.06,47.7,10.5,65.9,0S158.59,75,140.39,64.48ZM127.12,94.87c-10.87,6.28-28.49,6.28-39.36,0s-10.87-16.45,0-22.72,28.49-6.28,39.36,0S138,88.6,127.12,94.87Z"/><path class="cls-18" d="M149.9,69.79a38.69,38.69,0,0,0-7.24-5.29,59.61,59.61,0,0,0-14.79-5.91c10.3,6.53,10,16.65-.94,23-11.26,6.5-29.51,6.5-40.76,0C75.61,75.46,75,65.81,84.2,59.28A58.17,58.17,0,0,0,71.86,64.5a38.69,38.69,0,0,0-7.24,5.29H57.2V84.94h0c0,7.39,4.89,14.79,14.66,20.43,19.55,11.29,51.25,11.29,70.8,0,9.78-5.64,14.66-13,14.66-20.43V69.79Z"/><path class="cls-14" d="M87.26,65.66c11-6.37,28.95-6.37,40,0a22.21,22.21,0,0,1,4.5,3.38c6.25-6.24,4.76-14.36-4.5-19.71-11.05-6.37-28.95-6.37-40,0C78,54.68,76.51,62.8,82.76,69A22.21,22.21,0,0,1,87.26,65.66Z"/><path class="cls-19" d="M149.9,61a39.15,39.15,0,0,0-7.24-5.29,60,60,0,0,0-14.79-5.91c10.3,6.54,10,16.65-.94,23-11.26,6.5-29.51,6.5-40.76,0C75.61,66.63,75,57,84.2,50.45a58.17,58.17,0,0,0-12.34,5.22A39.15,39.15,0,0,0,64.62,61H57.2V76.11h0c0,7.4,4.89,14.79,14.66,20.44,19.55,11.28,51.25,11.28,70.8,0,9.78-5.65,14.66-13,14.66-20.44V61Z"/><path class="cls-19" d="M149.9,61a39.15,39.15,0,0,0-7.24-5.29,60,60,0,0,0-14.79-5.91c10.3,6.54,10,16.65-.94,23-11.26,6.5-29.51,6.5-40.76,0C75.61,66.63,75,57,84.2,50.45a58.17,58.17,0,0,0-12.34,5.22A39.15,39.15,0,0,0,64.62,61H57.2V76.11h0c0,7.4,4.89,14.79,14.66,20.44,19.55,11.28,51.25,11.28,70.8,0,9.78-5.65,14.66-13,14.66-20.44V61Z"/><path class="cls-20" d="M142.66,55.67a60,60,0,0,0-14.79-5.91c10.3,6.54,10,16.65-.94,23-5.45,3.15-12.53,4.77-19.67,4.87V105c12.81,0,25.63-2.82,35.4-8.46s14.66-13,14.66-20.44V61H149.9A39.15,39.15,0,0,0,142.66,55.67Z"/><path class="cls-21" d="M142.66,41.77c-19.55-11.29-51.25-11.29-70.8,0s-19.55,29.58,0,40.87,51.25,11.29,70.8,0S162.21,53.05,142.66,41.77ZM127.28,74c-11.25,6.5-29.5,6.5-40.75,0s-11.26-17,0-23.53,29.51-6.5,40.76,0S138.54,67.47,127.28,74Z"/><path class="cls-3" d="M142.66,81.08c-19.55,11.29-51.25,11.29-70.8,0-9.43-5.44-14.31-12.52-14.64-19.66-.36,7.66,4.52,15.38,14.64,21.22,19.55,11.29,51.25,11.29,70.8,0,10.12-5.84,15-13.56,14.64-21.21C157,68.56,152.09,75.64,142.66,81.08Z"/><path class="cls-22" d="M140.39,42.82c-18.2-10.51-47.71-10.51-65.9,0s-18.2,27.55,0,38.06,47.7,10.5,65.9,0S158.59,53.32,140.39,42.82ZM127.12,73.2c-10.87,6.28-28.49,6.28-39.36,0s-10.87-16.45,0-22.72,28.49-6.28,39.36,0S138,66.93,127.12,73.2Z"/><path class="cls-3" d="M160,285.31a12.49,12.49,0,0,1-6.14-1.41L73.37,237.45a4.33,4.33,0,0,1-2.5-3.65c0-1.7,1.28-3.42,3.5-4.7L227.8,140.52c4.17-2.41,10.51-2.67,14.13-.58l80.44,46.44a4.32,4.32,0,0,1,2.5,3.65c0,1.71-1.27,3.43-3.5,4.71L168,283.32A16.38,16.38,0,0,1,160,285.31Zm75.82-146.44a16,16,0,0,0-7.81,1.95L74.55,229.4c-2.12,1.22-3.33,2.83-3.33,4.4a4,4,0,0,0,2.33,3.35L154,283.6c3.52,2,9.71,1.77,13.78-.58L321.2,194.44c2.11-1.22,3.33-2.83,3.33-4.41a4,4,0,0,0-2.33-3.35l-80.45-46.44A12.16,12.16,0,0,0,235.78,138.87Z"/><path class="cls-23" d="M324.7,168.58l-11.55,2L241.84,129.4c-3.58-2.06-9.82-1.8-14,.58L91.47,208.74l-20.42,3.52v7.24h0A4.12,4.12,0,0,0,73.46,223l80.44,46.45c3.58,2.06,9.83,1.8,14-.58l153.42-88.58c2.23-1.29,3.37-2.92,3.41-4.49h0Z"/><path class="cls-22" d="M153.9,262.17,73.46,215.73c-3.58-2.07-3.13-5.67,1-8.06l153.43-88.58c4.13-2.38,10.37-2.64,14-.58L322.29,165c3.57,2.06,3.12,5.67-1,8.06L167.86,261.6C163.73,264,157.48,264.24,153.9,262.17Z"/><path class="cls-12" d="M321.28,173,167.86,261.6c-4.13,2.38-10.38,2.64-14,.57L73.46,215.73a4.35,4.35,0,0,1-2.37-3c-.22,1.48.55,2.94,2.37,4l80.44,46.44c3.58,2.07,9.83,1.81,14-.57L321.28,174c2.48-1.43,3.62-3.3,3.38-5C324.44,170.38,323.31,171.85,321.28,173Z"/><path class="cls-24" d="M154.06,260.37l-77.57-44.8c-3.47-2-3-5.49,1-7.79L228,120.86c4-2.31,10.05-2.56,13.51-.56l77.57,44.8c3.47,2,3,5.49-1,7.8L167.57,259.81C163.57,262.12,157.52,262.37,154.06,260.37Z"/><g class="cls-25"><path class="cls-1" d="M154.06,260.37l-77.57-44.8c-3.47-2-3-5.49,1-7.79L228,120.86c4-2.31,10.05-2.56,13.51-.56l77.57,44.8c3.47,2,3,5.49-1,7.8L167.57,259.81C163.57,262.12,157.52,262.37,154.06,260.37Z"/><g class="cls-26"><path class="cls-27" d="M149.9,220.84a39.15,39.15,0,0,0-7.24-5.29,60,60,0,0,0-14.79-5.9c10.3,6.53,10,16.65-.94,23-11.26,6.49-29.51,6.49-40.76,0-10.56-6.1-11.21-15.74-2-22.28a58.17,58.17,0,0,0-12.34,5.22,39.15,39.15,0,0,0-7.24,5.29H57.2V236h0c0,7.4,4.89,14.79,14.66,20.44,19.55,11.29,51.25,11.29,70.8,0,9.78-5.64,14.66-13,14.66-20.44V220.84Z"/><path class="cls-28" d="M142.66,215.55a60,60,0,0,0-14.79-5.9c10.3,6.53,10,16.65-.94,23-5.45,3.14-12.53,4.76-19.67,4.86v27.42c12.81,0,25.63-2.82,35.4-8.46s14.66-13,14.66-20.44V220.84H149.9A39.15,39.15,0,0,0,142.66,215.55Z"/><path class="cls-7" d="M142.66,201.65c-19.55-11.29-51.25-11.29-70.8,0s-19.55,29.59,0,40.88,51.25,11.28,70.8,0S162.21,212.94,142.66,201.65Zm-15.38,32.2c-11.25,6.5-29.5,6.5-40.75,0s-11.26-17,0-23.53,29.51-6.5,40.76,0S138.54,227.36,127.28,233.85Z"/><path class="cls-3" d="M142.66,241c-19.55,11.28-51.25,11.28-70.8,0-9.43-5.45-14.31-12.53-14.64-19.66-.36,7.65,4.52,15.37,14.64,21.22,19.55,11.28,51.25,11.28,70.8,0,10.12-5.85,15-13.57,14.64-21.22C157,228.44,152.09,235.52,142.66,241Z"/><path class="cls-3" d="M127.28,208.76c-11.25-6.5-29.5-6.5-40.76,0-6,3.45-8.77,8-8.4,12.55.32-4,3.12-7.94,8.4-11,11.26-6.5,29.51-6.5,40.76,0,5.29,3.05,8.09,7,8.41,11C136.06,216.79,133.25,212.21,127.28,208.76Z"/><path class="cls-29" d="M140.39,201.64c-18.2-10.51-47.71-10.51-65.9,0s-18.2,27.54,0,38.05,47.7,10.51,65.9,0S158.59,212.14,140.39,201.64ZM127.12,232c-10.87,6.27-28.49,6.27-39.36,0s-10.87-16.46,0-22.73,28.49-6.28,39.36,0S138,225.75,127.12,232Z"/><path class="cls-9" d="M149.9,206.94a39.15,39.15,0,0,0-7.24-5.29,59.6,59.6,0,0,0-14.79-5.9c10.3,6.53,10,16.64-.94,22.95-11.26,6.5-29.51,6.5-40.76,0C75.61,212.61,75,203,84.2,196.43a58.17,58.17,0,0,0-12.34,5.22,39.15,39.15,0,0,0-7.24,5.29H57.2v15.15h0c0,7.4,4.89,14.79,14.66,20.44,19.55,11.28,51.25,11.28,70.8,0,9.78-5.65,14.66-13,14.66-20.44V206.94Z"/><path class="cls-30" d="M149.9,198.11a39.15,39.15,0,0,0-7.24-5.29,59.6,59.6,0,0,0-14.79-5.9c10.3,6.53,10,16.64-.94,23-11.26,6.49-29.51,6.49-40.76,0-10.56-6.09-11.21-15.74-2-22.27a58.17,58.17,0,0,0-12.34,5.22,39.15,39.15,0,0,0-7.24,5.29H57.2v15.15h0c0,7.4,4.89,14.79,14.66,20.44,19.55,11.29,51.25,11.29,70.8,0,9.78-5.65,14.66-13,14.66-20.44V198.11Z"/><path class="cls-31" d="M142.66,192.82a59.6,59.6,0,0,0-14.79-5.9c10.3,6.53,10,16.64-.94,23-5.45,3.14-12.53,4.76-19.67,4.86v27.42c12.81,0,25.63-2.82,35.4-8.46s14.66-13,14.66-20.44V198.11H149.9A39.15,39.15,0,0,0,142.66,192.82Z"/><path class="cls-32" d="M142.66,192.82a59.6,59.6,0,0,0-14.79-5.9c10.3,6.53,10,16.64-.94,23-5.45,3.14-12.53,4.76-19.67,4.86v27.42c12.81,0,25.63-2.82,35.4-8.46s14.66-13,14.66-20.44V198.11H149.9A39.15,39.15,0,0,0,142.66,192.82Z"/><path class="cls-7" d="M142.66,178.92c-19.55-11.29-51.25-11.29-70.8,0s-19.55,29.59,0,40.87,51.25,11.29,70.8,0S162.21,190.21,142.66,178.92Zm-15.38,32.2c-11.25,6.5-29.5,6.5-40.75,0s-11.26-17,0-23.53,29.51-6.5,40.76,0S138.54,204.62,127.28,211.12Z"/><path class="cls-3" d="M142.66,218.24c-19.55,11.28-51.25,11.28-70.8,0-9.43-5.44-14.31-12.52-14.64-19.65-.36,7.65,4.52,15.37,14.64,21.21,19.55,11.29,51.25,11.29,70.8,0,10.12-5.85,15-13.57,14.64-21.22C157,205.71,152.09,212.79,142.66,218.24Z"/><path class="cls-3" d="M127.28,186c-11.25-6.5-29.5-6.5-40.76,0-6,3.45-8.77,8-8.4,12.55.32-4,3.12-7.94,8.4-11,11.26-6.5,29.51-6.5,40.76,0,5.29,3,8.09,7,8.41,11C136.06,194.06,133.25,189.48,127.28,186Z"/><path class="cls-33" d="M140.39,178.91c-18.2-10.51-47.71-10.51-65.9,0s-18.2,27.55,0,38.06,47.7,10.5,65.9,0S158.59,189.41,140.39,178.91Zm-13.27,30.38c-10.87,6.28-28.49,6.28-39.36,0s-10.87-16.45,0-22.72,28.49-6.28,39.36,0S138,203,127.12,209.29Z"/><path class="cls-9" d="M149.9,184.21a39.15,39.15,0,0,0-7.24-5.29A60,60,0,0,0,127.87,173c10.3,6.53,10,16.65-.94,23-11.26,6.5-29.51,6.5-40.76,0-10.56-6.09-11.21-15.74-2-22.27a58.17,58.17,0,0,0-12.34,5.22,39.15,39.15,0,0,0-7.24,5.29H57.2v15.15h0c0,7.39,4.89,14.79,14.66,20.43,19.55,11.29,51.25,11.29,70.8,0,9.78-5.65,14.66-13.05,14.66-20.44V184.21Z"/><path class="cls-34" d="M149.9,175.38a39.15,39.15,0,0,0-7.24-5.29,59.6,59.6,0,0,0-14.79-5.9c10.3,6.53,10,16.64-.94,22.95-11.26,6.5-29.51,6.5-40.76,0-10.56-6.09-11.21-15.74-2-22.27a58.17,58.17,0,0,0-12.34,5.22,39.15,39.15,0,0,0-7.24,5.29H57.2v15.15h0c0,7.4,4.89,14.79,14.66,20.44,19.55,11.28,51.25,11.28,70.8,0,9.78-5.65,14.66-13,14.66-20.44V175.38Z"/><path class="cls-31" d="M142.66,170.09a59.6,59.6,0,0,0-14.79-5.9c10.3,6.53,10,16.64-.94,22.95-5.45,3.15-12.53,4.77-19.67,4.87v27.42c12.81,0,25.63-2.82,35.4-8.46s14.66-13,14.66-20.44V175.38H149.9A39.15,39.15,0,0,0,142.66,170.09Z"/><path class="cls-35" d="M142.66,170.09a59.6,59.6,0,0,0-14.79-5.9c10.3,6.53,10,16.64-.94,22.95-5.45,3.15-12.53,4.77-19.67,4.87v27.42c12.81,0,25.63-2.82,35.4-8.46s14.66-13,14.66-20.44V175.38H149.9A39.15,39.15,0,0,0,142.66,170.09Z"/><path class="cls-7" d="M142.66,156.19c-19.55-11.29-51.25-11.29-70.8,0s-19.55,29.59,0,40.87,51.25,11.29,70.8,0S162.21,167.48,142.66,156.19Zm-15.38,32.2c-11.25,6.5-29.5,6.5-40.75,0s-11.26-17,0-23.53,29.51-6.5,40.76,0S138.54,181.89,127.28,188.39Z"/><path class="cls-3" d="M142.66,195.5c-19.55,11.29-51.25,11.29-70.8,0-9.43-5.44-14.31-12.52-14.64-19.66-.36,7.66,4.52,15.38,14.64,21.22,19.55,11.29,51.25,11.29,70.8,0,10.12-5.84,15-13.56,14.64-21.21C157,183,152.09,190.06,142.66,195.5Z"/><path class="cls-3" d="M127.28,163.3c-11.25-6.5-29.5-6.5-40.76,0-6,3.45-8.77,8-8.4,12.55.32-4,3.12-7.94,8.4-11,11.26-6.5,29.51-6.5,40.76,0,5.29,3,8.09,7,8.41,11C136.06,171.33,133.25,166.75,127.28,163.3Z"/><path class="cls-36" d="M140.39,156.17c-18.2-10.5-47.71-10.5-65.9,0s-18.2,27.55,0,38.06,47.7,10.5,65.9,0S158.59,166.68,140.39,156.17Zm-13.27,30.39c-10.87,6.28-28.49,6.28-39.36,0s-10.87-16.45,0-22.72,28.49-6.28,39.36,0S138,180.29,127.12,186.56Z"/><path class="cls-37" d="M149.9,161.47a39.12,39.12,0,0,0-7.24-5.28,59.61,59.61,0,0,0-14.79-5.91c10.3,6.53,10,16.65-.94,23-11.26,6.5-29.51,6.5-40.76,0C75.61,167.15,75,157.5,84.2,151a58.71,58.71,0,0,0-12.34,5.23,39.12,39.12,0,0,0-7.24,5.28H57.2v15.16h0c0,7.39,4.89,14.79,14.66,20.43,19.55,11.29,51.25,11.29,70.8,0,9.78-5.64,14.66-13,14.66-20.43V161.47Z"/><path class="cls-38" d="M87.26,157.35c11-6.38,28.95-6.37,40,0a22.21,22.21,0,0,1,4.5,3.38c6.25-6.24,4.76-14.36-4.5-19.71-11.05-6.37-28.95-6.38-40,0-9.25,5.35-10.75,13.47-4.5,19.71A22.21,22.21,0,0,1,87.26,157.35Z"/><path class="cls-39" d="M149.9,152.65a39.15,39.15,0,0,0-7.24-5.29,60,60,0,0,0-14.79-5.91c10.3,6.54,10,16.65-.94,23-11.26,6.5-29.51,6.5-40.76,0-10.56-6.09-11.21-15.74-2-22.27a58.17,58.17,0,0,0-12.34,5.22,39.15,39.15,0,0,0-7.24,5.29H57.2V167.8h0c0,7.39,4.89,14.79,14.66,20.44,19.55,11.28,51.25,11.28,70.8,0,9.78-5.65,14.66-13,14.66-20.44V152.65Z"/><path class="cls-39" d="M149.9,152.65a39.15,39.15,0,0,0-7.24-5.29,60,60,0,0,0-14.79-5.91c10.3,6.54,10,16.65-.94,23-11.26,6.5-29.51,6.5-40.76,0-10.56-6.09-11.21-15.74-2-22.27a58.17,58.17,0,0,0-12.34,5.22,39.15,39.15,0,0,0-7.24,5.29H57.2V167.8h0c0,7.39,4.89,14.79,14.66,20.44,19.55,11.28,51.25,11.28,70.8,0,9.78-5.65,14.66-13,14.66-20.44V152.65Z"/><path class="cls-40" d="M142.66,147.36a60,60,0,0,0-14.79-5.91c10.3,6.54,10,16.65-.94,23-5.45,3.15-12.53,4.77-19.67,4.87V196.7c12.81,0,25.63-2.82,35.4-8.46s14.66-13,14.66-20.44V152.65H149.9A39.15,39.15,0,0,0,142.66,147.36Z"/><path class="cls-41" d="M142.66,147.36a60,60,0,0,0-14.79-5.91c10.3,6.54,10,16.65-.94,23-5.45,3.15-12.53,4.77-19.67,4.87V196.7c12.81,0,25.63-2.82,35.4-8.46s14.66-13,14.66-20.44V152.65H149.9A39.15,39.15,0,0,0,142.66,147.36Z"/><path class="cls-42" d="M142.66,133.46c-19.55-11.29-51.25-11.29-70.8,0s-19.55,29.58,0,40.87,51.25,11.29,70.8,0S162.21,144.74,142.66,133.46Zm-15.38,32.2c-11.25,6.5-29.5,6.5-40.75,0s-11.26-17,0-23.53,29.51-6.5,40.76,0S138.54,159.16,127.28,165.66Z"/><path class="cls-43" d="M142.66,172.77c-19.55,11.29-51.25,11.29-70.8,0-9.43-5.44-14.31-12.52-14.64-19.66-.36,7.66,4.52,15.38,14.64,21.22,19.55,11.29,51.25,11.29,70.8,0,10.12-5.84,15-13.56,14.64-21.21C157,160.25,152.09,167.33,142.66,172.77Z"/><path class="cls-44" d="M127.28,140.57c-11.25-6.5-29.5-6.5-40.76,0-6,3.45-8.77,8-8.4,12.54.32-4,3.12-7.93,8.4-11,11.26-6.5,29.51-6.5,40.76,0,5.29,3.05,8.09,7,8.41,11C136.06,148.6,133.25,144,127.28,140.57Z"/><path class="cls-45" d="M140.39,133.44c-18.2-10.5-47.71-10.5-65.9,0s-18.2,27.55,0,38.05,47.7,10.51,65.9,0S158.59,144,140.39,133.44Zm-13.27,30.39c-10.87,6.28-28.49,6.28-39.36,0s-10.87-16.45,0-22.73,28.49-6.27,39.36,0S138,157.56,127.12,163.83Z"/></g></g><path class="cls-46" d="M154.06,258.37l-77.57-44.8c-3.47-2-3-5.49,1-7.79L228,118.86c4-2.31,10.05-2.56,13.51-.56l77.57,44.8c3.47,2,3,5.49-1,7.8L167.57,257.81C163.57,260.12,157.52,260.37,154.06,258.37Z"/><path class="cls-47" d="M159.93,260a12.25,12.25,0,0,1-6-1.38l-77.58-44.8a4.27,4.27,0,0,1-2.46-3.6c0-1.69,1.25-3.37,3.43-4.63l150.58-86.92c4.06-2.34,10.23-2.59,13.75-.55l77.58,44.8a4.26,4.26,0,0,1,2.46,3.6c0,1.68-1.25,3.37-3.43,4.63L167.69,258A16,16,0,0,1,159.93,260Zm-5.74-1.81c3.39,1.95,9.33,1.7,13.25-.56L318,170.68c2-1.16,3.18-2.69,3.18-4.19a3.79,3.79,0,0,0-2.21-3.17l-77.58-44.8c-3.39-2-9.33-1.71-13.25.56L77.58,206c-2,1.17-3.18,2.7-3.18,4.2a3.77,3.77,0,0,0,2.21,3.16Z"/><path class="cls-3" d="M226.86,209.86a12.82,12.82,0,0,1-6.29-1.45l-53.72-31a4.45,4.45,0,0,1-2.56-3.73c0-1.75,1.31-3.5,3.58-4.82,4.27-2.46,10.75-2.72,14.45-.59l53.73,31A4.44,4.44,0,0,1,238.6,203c0,1.74-1.3,3.5-3.58,4.81A16.72,16.72,0,0,1,226.86,209.86ZM176,167.16a16.39,16.39,0,0,0-8,2c-2.17,1.25-3.41,2.89-3.41,4.51A4.12,4.12,0,0,0,167,177.1l53.73,31c3.6,2.08,9.93,1.82,14.1-.59,2.16-1.25,3.41-2.89,3.41-4.51a4.11,4.11,0,0,0-2.39-3.43l-53.72-31A12.48,12.48,0,0,0,176,167.16Z"/><path class="cls-9" d="M138.84,43.71c-17.34-10-45.46-10-62.8,0S58.7,70,76,80s45.46,10,62.8,0S156.18,53.72,138.84,43.71Z"/><ellipse class="cls-9" cx="107.44" cy="61.84" rx="27.78" ry="16.04"/><path class="cls-3" d="M89.27,275.66a8.76,8.76,0,0,1-4.41-1.18L1.8,226.62a3.6,3.6,0,0,1,0-6.23l72.65-41.95.18.3L2,220.69a3.26,3.26,0,0,0,0,5.63L85,274.18a8.47,8.47,0,0,0,8.49,0l21.92-12.74.17.3L93.69,274.47A8.81,8.81,0,0,1,89.27,275.66Z"/><path class="cls-9" d="M120.44,52.9a1.13,1.13,0,1,1-1.13-1.14A1.13,1.13,0,0,1,120.44,52.9Z"/><path class="cls-9" d="M100.67,1.13A1.13,1.13,0,1,1,99.54,0,1.13,1.13,0,0,1,100.67,1.13Z"/><path class="cls-9" d="M102.88,39.82a1.67,1.67,0,1,1-1.67-1.67A1.66,1.66,0,0,1,102.88,39.82Z"/><path class="cls-48" d="M99.84,68.32a1.18,1.18,0,1,1-1.18-1.19A1.18,1.18,0,0,1,99.84,68.32Z"/><path class="cls-48" d="M116.65,20.61a1.81,1.81,0,1,1-1.81-1.81A1.81,1.81,0,0,1,116.65,20.61Z"/><circle class="cls-48" cx="114.01" cy="26.46" r="1.22"/><polygon class="cls-49" points="244.71 116.28 197.34 88.93 261.38 51.96 308.74 79.31 244.71 116.28"/><path class="cls-3" d="M244.65,111.46a6.06,6.06,0,0,1-3-.79l-35-20.21a1.72,1.72,0,0,1,0-3l51.78-29.89a6,6,0,0,1,6,0l35,20.21a1.72,1.72,0,0,1,0,3l-51.78,29.9A6.07,6.07,0,0,1,244.65,111.46Zm16.78-54.33a5.6,5.6,0,0,0-2.8.75L206.85,87.77a1.37,1.37,0,0,0-.69,1.19,1.35,1.35,0,0,0,.69,1.19l35,20.21a5.6,5.6,0,0,0,5.6,0l51.79-29.89a1.36,1.36,0,0,0,.68-1.19,1.34,1.34,0,0,0-.68-1.19l-35-20.21A5.57,5.57,0,0,0,261.43,57.13Z"/><polygon class="cls-3" points="253.05 77.49 247.56 74.32 248.93 73.53 254.42 76.7 253.05 77.49"/><polygon class="cls-50" points="257.74 80.2 255 78.61 256.36 77.83 259.11 79.41 257.74 80.2"/><polygon class="cls-50" points="249.85 79.34 244.36 76.17 245.73 75.38 251.22 78.55 249.85 79.34"/><polygon class="cls-50" points="254.54 82.05 251.79 80.46 253.16 79.67 255.91 81.26 254.54 82.05"/><polygon class="cls-3" points="246.65 81.19 241.16 78.02 242.53 77.23 248.02 80.4 246.65 81.19"/><polygon class="cls-3" points="251.34 83.89 248.59 82.31 249.96 81.52 252.71 83.11 251.34 83.89"/><polygon class="cls-3" points="243.45 83.04 237.96 79.86 239.32 79.08 244.82 82.25 243.45 83.04"/><polygon class="cls-3" points="248.14 85.74 245.39 84.16 246.76 83.37 249.5 84.95 248.14 85.74"/><polygon class="cls-3" points="240.25 84.88 234.76 81.71 236.12 80.92 241.62 84.1 240.25 84.88"/><polygon class="cls-3" points="244.94 87.59 242.19 86 243.56 85.22 246.31 86.8 244.94 87.59"/><polygon class="cls-3" points="237.05 86.73 231.56 83.56 232.92 82.77 238.42 85.94 237.05 86.73"/><polygon class="cls-3" points="241.74 89.44 238.99 87.85 240.36 87.06 243.1 88.65 241.74 89.44"/><polygon class="cls-3" points="233.85 88.58 228.36 85.41 229.72 84.62 235.22 87.79 233.85 88.58"/><polygon class="cls-50" points="238.54 91.29 235.79 89.7 237.16 88.91 239.9 90.5 238.54 91.29"/><polygon class="cls-3" points="230.65 90.43 225.16 87.26 226.52 86.47 232.02 89.64 230.65 90.43"/><polygon class="cls-50" points="235.34 93.13 232.59 91.55 233.96 90.76 236.7 92.35 235.34 93.13"/><polygon class="cls-3" points="265.25 84.61 259.76 81.43 261.13 80.65 266.62 83.82 265.25 84.61"/><polygon class="cls-3" points="269.94 87.31 267.2 85.73 268.56 84.94 271.31 86.52 269.94 87.31"/><polygon class="cls-3" points="262.05 86.45 256.56 83.28 257.93 82.49 263.42 85.67 262.05 86.45"/><polygon class="cls-3" points="266.74 89.16 264 87.57 265.36 86.79 268.11 88.37 266.74 89.16"/><polygon class="cls-3" points="258.85 88.3 253.36 85.13 254.73 84.34 260.22 87.51 258.85 88.3"/><polygon class="cls-3" points="263.54 91.01 260.8 89.42 262.16 88.63 264.91 90.22 263.54 91.01"/><polygon class="cls-3" points="262.6 71.98 257.11 68.81 258.47 68.02 263.97 71.19 262.6 71.98"/><polygon class="cls-3" points="267.29 74.69 264.54 73.1 265.91 72.31 268.65 73.9 267.29 74.69"/><polygon class="cls-3" points="259.4 73.83 253.91 70.66 255.27 69.87 260.77 73.04 259.4 73.83"/><polygon class="cls-3" points="264.09 76.53 261.34 74.95 262.71 74.16 265.45 75.75 264.09 76.53"/><polygon class="cls-3" points="256.2 75.68 250.71 72.5 252.07 71.72 257.57 74.89 256.2 75.68"/><polygon class="cls-3" points="260.89 78.38 258.14 76.8 259.51 76.01 262.25 77.59 260.89 78.38"/><polygon class="cls-3" points="274.8 79.09 269.31 75.92 270.68 75.13 276.17 78.31 274.8 79.09"/><polygon class="cls-3" points="279.49 81.8 276.74 80.21 278.11 79.43 280.86 81.01 279.49 81.8"/><polygon class="cls-50" points="271.6 80.94 266.11 77.77 267.47 76.98 272.97 80.15 271.6 80.94"/><polygon class="cls-3" points="276.29 83.65 273.54 82.06 274.91 81.27 277.65 82.86 276.29 83.65"/><polygon class="cls-3" points="268.4 82.79 262.91 79.62 264.27 78.83 269.77 82 268.4 82.79"/><polygon class="cls-3" points="273.09 85.5 270.34 83.91 271.71 83.12 274.45 84.71 273.09 85.5"/><polygon class="cls-3" points="255.65 90.15 250.16 86.98 251.53 86.19 257.02 89.36 255.65 90.15"/><polygon class="cls-3" points="260.34 92.86 257.59 91.27 258.96 90.48 261.71 92.07 260.34 92.86"/><polygon class="cls-50" points="252.45 92 246.96 88.83 248.32 88.04 253.82 91.21 252.45 92"/><polygon class="cls-3" points="257.14 94.7 254.39 93.12 255.76 92.33 258.5 93.92 257.14 94.7"/><polygon class="cls-3" points="249.25 93.84 243.76 90.67 245.12 89.89 250.62 93.06 249.25 93.84"/><polygon class="cls-3" points="253.94 96.55 251.19 94.97 252.56 94.18 255.31 95.76 253.94 96.55"/><polygon class="cls-3" points="246.05 95.69 240.56 92.52 241.92 91.73 247.42 94.91 246.05 95.69"/><polygon class="cls-3" points="250.74 98.4 247.99 96.81 249.36 96.03 252.1 97.61 250.74 98.4"/><polygon class="cls-3" points="242.91 97.51 237.42 94.33 238.78 93.55 244.28 96.72 242.91 97.51"/><polygon class="cls-3" points="247.6 100.21 244.85 98.63 246.22 97.84 248.96 99.42 247.6 100.21"/><path class="cls-22" d="M116,245.45,111.74,243a1.74,1.74,0,0,1-.73-1.38h0c0-.54.33-.79.73-.55l4.27,2.46a1.74,1.74,0,0,1,.73,1.39h0C116.74,245.44,116.42,245.68,116,245.45Z"/><polygon class="cls-4" points="282.12 300.93 234.75 273.58 298.79 236.61 346.15 263.96 282.12 300.93"/><polygon class="cls-51" points="282.12 290.52 234.75 263.18 298.79 226.21 346.15 253.55 282.12 290.52"/><path class="cls-3" d="M282.06,285.7a5.93,5.93,0,0,1-3-.79l-35-20.21a1.72,1.72,0,0,1,0-3l51.79-29.9a6,6,0,0,1,5.94,0l35,20.21a1.72,1.72,0,0,1,0,3L285,284.91A6,6,0,0,1,282.06,285.7Zm16.78-54.33a5.57,5.57,0,0,0-2.8.75L244.26,262a1.35,1.35,0,0,0-.69,1.19,1.37,1.37,0,0,0,.69,1.19l35,20.21a5.6,5.6,0,0,0,5.6,0l51.78-29.9a1.37,1.37,0,0,0,0-2.38l-35-20.21A5.57,5.57,0,0,0,298.84,231.37Z"/><path class="cls-3" d="M267.35,244.45l-4.87-2.77a8.24,8.24,0,0,1-4.15-7.14v-10a7.9,7.9,0,0,0-4-6.83l-18.46-10.58.17-.3,18.46,10.58a8.24,8.24,0,0,1,4.14,7.13v10a7.89,7.89,0,0,0,4,6.84l4.87,2.77Z"/><path class="cls-52" d="M208.44,183.64l-.17-.29,73-42.58a2.5,2.5,0,0,1,3.75,2.15h-.35a2.16,2.16,0,0,0-3.23-1.86Z"/><path class="cls-52" d="M287.6,145l-.18-.3,30.22-17.86a3.36,3.36,0,0,0-.06-5.81L273.13,95.84l.17-.3,44.45,25.19a3.7,3.7,0,0,1,.06,6.41Z"/><polygon class="cls-52" points="183.56 180 182.15 179.18 183.56 178.37 184.98 179.18 183.56 180"/><polygon class="cls-52" points="187.4 180.12 185.99 179.31 187.4 178.49 188.82 179.31 187.4 180.12"/><polygon class="cls-52" points="185.55 183.68 184.13 182.86 185.55 182.05 186.96 182.86 185.55 183.68"/><polygon class="cls-52" points="179.42 177.21 178.01 176.4 179.42 175.58 180.84 176.4 179.42 177.21"/><polygon class="cls-52" points="190.44 183.16 189.03 182.34 190.44 181.52 191.86 182.34 190.44 183.16"/><polygon class="cls-52" points="193.68 182.46 192.26 181.64 193.68 180.83 195.09 181.64 193.68 182.46"/><polygon class="cls-52" points="190.39 185.17 188.98 184.36 190.39 183.54 191.8 184.36 190.39 185.17"/><polygon class="cls-52" points="196.01 187.6 194.6 186.79 196.01 185.97 197.42 186.79 196.01 187.6"/><polygon class="cls-52" points="200.36 188.42 198.95 187.61 200.36 186.79 201.78 187.61 200.36 188.42"/><polygon class="cls-52" points="200.36 191.97 198.95 191.15 200.36 190.34 201.78 191.15 200.36 191.97"/><polygon class="cls-52" points="202.92 190.78 201.51 189.96 202.92 189.15 204.33 189.96 202.92 190.78"/><polygon class="cls-52" points="208.48 192.64 207.07 191.82 208.48 191.01 209.89 191.82 208.48 192.64"/><polygon class="cls-52" points="213.39 193.99 211.97 193.17 213.39 192.36 214.8 193.17 213.39 193.99"/><polygon class="cls-52" points="208.82 195.81 207.4 195 208.82 194.18 210.23 195 208.82 195.81"/><polygon class="cls-52" points="215.69 198.55 214.28 197.73 215.69 196.91 217.1 197.73 215.69 198.55"/><polygon class="cls-52" points="219.88 198.87 218.46 198.06 219.88 197.24 221.29 198.06 219.88 198.87"/><polygon class="cls-52" points="215.32 196.59 213.91 195.77 215.32 194.96 216.73 195.77 215.32 196.59"/><polygon class="cls-52" points="223.47 203.04 222.06 202.22 223.47 201.41 224.88 202.22 223.47 203.04"/></g></g></g></svg>