<!-- Generated by IcoMoon.io -->
<svg version="1.1" xmlns="http://www.w3.org/2000/svg" width="1024" height="1024" viewBox="0 0 1024 1024">
<title></title>
<g id="icomoon-ignore">
</g>
<path fill="#09244b" d="M665.6 179.2c0-98.97 80.231-179.2 179.2-179.2s179.2 80.231 179.2 179.2c0 98.97-80.231 179.2-179.2 179.2-50.309 0-95.78-20.732-128.328-54.12l-221.374 116.047c10.916 28.462 16.901 59.371 16.901 91.674s-5.986 63.211-16.901 91.674l221.374 116.045c32.548-33.388 78.018-54.119 128.328-54.119 98.97 0 179.2 80.231 179.2 179.2s-80.231 179.2-179.2 179.2c-98.97 0-179.2-80.231-179.2-179.2 0-11.766 1.132-23.27 3.298-34.402l-229.167-120.136c-46.524 47.944-111.648 77.737-183.731 77.737-141.385 0-256-114.617-256-256s114.616-256 256-256c72.083 0 137.207 29.791 183.731 77.734l229.167-120.132c-2.161-11.134-3.298-22.636-3.298-34.402z"></path>
</svg>
