<svg aria-hidden="true" style="position: absolute; width: 0; height: 0; overflow: hidden;" version="1.1" xmlns="http://www.w3.org/2000/svg" xmlns:xlink="http://www.w3.org/1999/xlink">
<defs>
<symbol id="icon-arrow-left" viewBox="0 0 32 32">
<path d="M20.286 0l-16 16 16 16 4.571-4.571-11.429-11.429 11.429-11.429z"></path>
</symbol>
<symbol id="icon-close" viewBox="0 0 32 32">
<path d="M32 3.638l-3.638-3.609-12.362 12.362-12.391-12.362-3.609 3.609 12.362 12.391-12.334 12.334 3.609 3.638 12.362-12.362 12.362 12.391 3.638-3.638-12.391-12.362 12.391-12.391z"></path>
</symbol>
<symbol id="icon-delete" viewBox="0 0 32 32">
<path d="M24 3.2v1.6h-3.2v-1.6h-9.6v1.6h-3.2v-1.6c0-1.767 1.433-3.2 3.2-3.2v0h9.6c1.767 0 3.2 1.433 3.2 3.2v0z"></path>
<path d="M28.8 6.4h-25.6c-0.884 0-1.6 0.716-1.6 1.6s0.716 1.6 1.6 1.6v0h1.6v19.2c0 1.767 1.433 3.2 3.2 3.2v0h16c1.767 0 3.2-1.433 3.2-3.2v0-19.2h1.6c0.884 0 1.6-0.716 1.6-1.6s-0.716-1.6-1.6-1.6v0zM14.4 24c0 0.884-0.716 1.6-1.6 1.6s-1.6-0.716-1.6-1.6v0-9.6c0-0.884 0.716-1.6 1.6-1.6s1.6 0.716 1.6 1.6v0zM20.8 24c0 0.884-0.716 1.6-1.6 1.6s-1.6-0.716-1.6-1.6v0-9.6c0-0.884 0.716-1.6 1.6-1.6s1.6 0.716 1.6 1.6v0z"></path>
</symbol>
<symbol id="icon-folder" viewBox="0 0 32 32">
<path d="M27.2 9.6h-19.2c-1.944 0.001-3.617 1.156-4.372 2.818l-0.012 0.030-3.616 8.144v-15.792c0-1.767 1.433-3.2 3.2-3.2v0h6.4c0.869 0.004 1.657 0.344 2.242 0.897l-0.002-0.001 3.888 3.904h8.272c1.767 0 3.2 1.433 3.2 3.2v0zM31.696 13.472c-0.292-0.407-0.763-0.669-1.296-0.672h-22.4c-0.645 0.001-1.2 0.384-1.452 0.934l-0.004 0.010-6.4 14.4c-0.089 0.193-0.141 0.418-0.141 0.656 0 0.882 0.714 1.598 1.596 1.6h24c0.001 0 0.003 0 0.004 0 0.7 0 1.296-0.45 1.512-1.077l0.003-0.011 4.8-14.4c0.051-0.15 0.080-0.322 0.080-0.501 0-0.353-0.114-0.679-0.308-0.943l0.003 0.005z"></path>
</symbol>
<symbol id="icon-file" viewBox="0 0 32 32">
<path d="M18 0l10 10v19c0 1.657-1.343 3-3 3h-18c-1.657 0-3-1.343-3-3v-26c0-1.657 1.343-3 3-3h11zM16 3.207v8.293c0 0.276 0.224 0.5 0.5 0.5h8.293c0.445 0 0.669-0.539 0.354-0.854l-8.293-8.293c-0.315-0.315-0.853-0.092-0.853 0.354z"></path>
</symbol>
<symbol id="icon-plus" viewBox="0 0 32 32">
<path d="M17.778-0l-0 14.222 14.222 0v3.556l-14.222-0 0 14.222h-3.556l-0-14.222-14.222 0v-3.556l14.222-0 0-14.222h3.556z"></path>
</symbol>
<symbol id="icon-share" viewBox="0 0 32 32">
<path d="M20.8 5.6c0-3.093 2.507-5.6 5.6-5.6s5.6 2.507 5.6 5.6c0 3.093-2.507 5.6-5.6 5.6-1.572 0-2.993-0.648-4.010-1.691l-6.918 3.626c0.341 0.889 0.528 1.855 0.528 2.865s-0.187 1.975-0.528 2.865l6.918 3.626c1.017-1.043 2.438-1.691 4.010-1.691 3.093 0 5.6 2.507 5.6 5.6s-2.507 5.6-5.6 5.6c-3.093 0-5.6-2.507-5.6-5.6 0-0.368 0.035-0.727 0.103-1.075l-7.161-3.754c-1.454 1.498-3.489 2.429-5.742 2.429-4.418 0-8-3.582-8-8s3.582-8 8-8c2.253 0 4.288 0.931 5.742 2.429l7.161-3.754c-0.068-0.348-0.103-0.707-0.103-1.075z"></path>
</symbol>
<symbol id="icon-storage" viewBox="0 0 32 32">
<path d="M16 0c7.050 0 13.009 2.909 13.211 6.393-0.202 3.484-6.162 6.397-13.211 6.397s-13.009-2.909-13.211-6.393c0.202-3.487 6.162-6.397 13.211-6.397z"></path>
<path d="M29.231 25.424c0 3.566-6.057 6.576-13.231 6.576s-13.231-3.011-13.231-6.576v-3.144c2.266 2.72 7.275 4.571 13.231 4.571s10.965-1.851 13.231-4.571v3.144z"></path>
<path d="M29.231 18.978c0 3.562-6.060 6.576-13.231 6.576-7.174 0-13.231-3.011-13.231-6.576v-3.275c2.266 2.72 7.275 4.568 13.231 4.568s10.965-1.851 13.231-4.568v3.275z"></path>
<path d="M29.231 12.395c0 3.566-6.057 6.576-13.231 6.576s-13.231-3.011-13.231-6.576v-2.877c2.266 2.72 7.275 4.568 13.231 4.568s10.965-1.848 13.231-4.568v2.877z"></path>
</symbol>
</defs>
</svg>