<svg aria-hidden="true" style="position: absolute; width: 0; height: 0; overflow: hidden;" version="1.1" xmlns="http://www.w3.org/2000/svg" xmlns:xlink="http://www.w3.org/1999/xlink">
<defs>
<symbol id="icon-avatar" viewBox="0 0 32 32">
<path d="M16 6.4c-3.535 0-6.4 2.865-6.4 6.4s2.865 6.4 6.4 6.4c3.535 0 6.4-2.865 6.4-6.4s-2.865-6.4-6.4-6.4z"></path>
<path d="M16 0c-8.837 0-16 7.163-16 16s7.163 16 16 16c8.836 0 16-7.163 16-16s-7.163-16-16-16zM3.2 16c0-7.069 5.731-12.8 12.8-12.8s12.8 5.731 12.8 12.8c0 3.246-1.208 6.21-3.2 8.467-2.547-2.279-5.912-3.667-9.6-3.667s-7.054 1.388-9.6 3.667c-1.992-2.256-3.2-5.22-3.2-8.467z"></path>
</symbol>
<symbol id="icon-arrow-left" viewBox="0 0 32 32">
<path d="M20.286 0l-16 16 16 16 4.571-4.571-11.429-11.429 11.429-11.429z"></path>
</symbol>
<symbol id="icon-arrow-right" viewBox="0 0 32 32">
<path d="M11.714 0l16 16-16 16-4.571-4.571 11.429-11.429-11.429-11.429z"></path>
</symbol>
<symbol id="icon-close" viewBox="0 0 32 32">
<path d="M32 3.638l-3.638-3.609-12.362 12.362-12.391-12.362-3.609 3.609 12.362 12.391-12.334 12.334 3.609 3.638 12.362-12.362 12.362 12.391 3.638-3.638-12.391-12.362 12.391-12.391z"></path>
</symbol>
<symbol id="icon-delete" viewBox="0 0 32 32">
<path d="M24 3.2v1.6h-3.2v-1.6h-9.6v1.6h-3.2v-1.6c0-1.767 1.433-3.2 3.2-3.2v0h9.6c1.767 0 3.2 1.433 3.2 3.2v0z"></path>
<path d="M28.8 6.4h-25.6c-0.884 0-1.6 0.716-1.6 1.6s0.716 1.6 1.6 1.6v0h1.6v19.2c0 1.767 1.433 3.2 3.2 3.2v0h16c1.767 0 3.2-1.433 3.2-3.2v0-19.2h1.6c0.884 0 1.6-0.716 1.6-1.6s-0.716-1.6-1.6-1.6v0zM14.4 24c0 0.884-0.716 1.6-1.6 1.6s-1.6-0.716-1.6-1.6v0-9.6c0-0.884 0.716-1.6 1.6-1.6s1.6 0.716 1.6 1.6v0zM20.8 24c0 0.884-0.716 1.6-1.6 1.6s-1.6-0.716-1.6-1.6v0-9.6c0-0.884 0.716-1.6 1.6-1.6s1.6 0.716 1.6 1.6v0z"></path>
</symbol>
<symbol id="icon-download" viewBox="0 0 32 32">
<path d="M14.953 23.751c0.256 0.258 0.659 0.4 1.062 0.4 0.36 0 0.805-0.142 1.062-0.4l7.962-8.020c0.392-0.393 0.507-0.983 0.292-1.494s-0.714-0.843-1.268-0.842l-2.598 0.021 0.038-11.377c-0.005-1.127-0.919-2.039-2.047-2.039h-6.884c-1.126 0-2.041 0.912-2.046 2.039l0.038 11.374-2.598-0.019c-0.555-0.001-1.056 0.331-1.268 0.842-0.215 0.51-0.101 1.102 0.291 1.494l7.964 8.020z"></path>
<path d="M29.647 13.531c-1.134 0-2.058 0.919-2.058 2.052v11.45c0 0.474-0.364 0.85-0.84 0.85h-21.529c-0.475 0-0.865-0.377-0.865-0.85v-11.451c0-1.133-0.896-2.052-2.029-2.052s-2.029 0.919-2.029 2.052v11.45c0 2.737 2.187 4.967 4.924 4.967h21.529c2.738 0 4.958-2.23 4.958-4.967v-11.45c0-1.133-0.927-2.052-2.059-2.052z"></path>
</symbol>
<symbol id="icon-edit" viewBox="0 0 32 32">
<path d="M27.077 1.442l3.481 3.481c1.923 1.922 1.923 5.039 0 6.962l-2.959 2.959-10.443-10.443 2.959-2.959c1.922-1.922 5.040-1.922 6.962 0zM15.416 6.141l-13.337 13.337c-0.793 0.793-1.291 1.833-1.413 2.948l-0.647 5.937c-0.227 2.085 1.533 3.845 3.618 3.618l5.936-0.647c1.115-0.121 2.155-0.62 2.948-1.413l13.337-13.337-10.443-10.443z"></path>
</symbol>
<symbol id="icon-folder" viewBox="0 0 32 32">
<path d="M27.2 9.6h-19.2c-1.944 0.001-3.617 1.156-4.372 2.818l-0.012 0.030-3.616 8.144v-15.792c0-1.767 1.433-3.2 3.2-3.2v0h6.4c0.869 0.004 1.657 0.344 2.242 0.897l-0.002-0.001 3.888 3.904h8.272c1.767 0 3.2 1.433 3.2 3.2v0zM31.696 13.472c-0.292-0.407-0.763-0.669-1.296-0.672h-22.4c-0.645 0.001-1.2 0.384-1.452 0.934l-0.004 0.010-6.4 14.4c-0.089 0.193-0.141 0.418-0.141 0.656 0 0.882 0.714 1.598 1.596 1.6h24c0.001 0 0.003 0 0.004 0 0.7 0 1.296-0.45 1.512-1.077l0.003-0.011 4.8-14.4c0.051-0.15 0.080-0.322 0.080-0.501 0-0.353-0.114-0.679-0.308-0.943l0.003 0.005z"></path>
</symbol>
<symbol id="icon-folder-add" viewBox="0 0 32 32">
<path d="M27.2 9.6h-19.199c-1.896 0-3.612 1.117-4.384 2.848l-3.615 8.143v-15.792c0-1.768 1.434-3.2 3.2-3.2h6.4c0.834 0.003 1.635 0.323 2.24 0.896l3.888 3.904h8.272c1.768 0 3.2 1.432 3.2 3.2zM31.92 14.912l-4.8 14.399c-0.22 0.652-0.832 1.090-1.52 1.088h-23.999c-1.159-0.002-1.931-1.198-1.456-2.256l6.4-14.399c0.258-0.573 0.827-0.942 1.456-0.944h22.399c0.515 0.003 0.997 0.253 1.296 0.672 0.302 0.416 0.386 0.952 0.224 1.44zM20.105 19.833h-3.872l-1.044 3.2h3.865l-1.291 3.934h3.2l1.291-3.934h3.601l1.044-3.2h-3.595l1.16-3.533h-3.2z"></path>
</symbol>
<symbol id="icon-file" viewBox="0 0 32 32">
<path d="M18 0l10 10v19c0 1.657-1.343 3-3 3h-18c-1.657 0-3-1.343-3-3v-26c0-1.657 1.343-3 3-3h11zM16 3.207v8.293c0 0.276 0.224 0.5 0.5 0.5h8.293c0.445 0 0.669-0.539 0.354-0.854l-8.293-8.293c-0.315-0.315-0.853-0.092-0.853 0.354z"></path>
</symbol>
<symbol id="icon-list" viewBox="0 0 32 32">
<path d="M30.769 2.462c0-0.679-0.55-1.231-1.231-1.231h-17.231c-0.679 0-1.231 0.551-1.231 1.231v2.462c0 0.679 0.551 1.231 1.231 1.231h17.231c0.681 0 1.231-0.551 1.231-1.231v-2.462z"></path>
<path d="M29.538 7.385h-17.231c-1.358 0-2.462-1.104-2.462-2.462v-2.462c0-1.358 1.104-2.462 2.462-2.462h17.231c1.358 0 2.462 1.104 2.462 2.462v2.462c0 1.358-1.104 2.462-2.462 2.462zM12.308 2.462v2.462h17.231v-2.462h-17.231z"></path>
<path d="M30.769 14.769c0-0.679-0.55-1.231-1.231-1.231h-17.231c-0.679 0-1.231 0.551-1.231 1.231v2.462c0 0.679 0.551 1.231 1.231 1.231h17.231c0.681 0 1.231-0.551 1.231-1.231v-2.462z"></path>
<path d="M29.538 19.692h-17.231c-1.358 0-2.462-1.104-2.462-2.462v-2.462c0-1.358 1.104-2.462 2.462-2.462h17.231c1.358 0 2.462 1.104 2.462 2.462v2.462c0 1.358-1.104 2.462-2.462 2.462zM12.308 14.769v2.462h17.231v-2.462h-17.231z"></path>
<path d="M30.769 27.077c0-0.679-0.55-1.231-1.231-1.231h-17.231c-0.679 0-1.231 0.551-1.231 1.231v2.462c0 0.679 0.551 1.231 1.231 1.231h17.231c0.681 0 1.231-0.551 1.231-1.231v-2.462z"></path>
<path d="M29.538 32h-17.231c-1.358 0-2.462-1.104-2.462-2.462v-2.462c0-1.358 1.104-2.462 2.462-2.462h17.231c1.358 0 2.462 1.104 2.462 2.462v2.462c0 1.358-1.104 2.462-2.462 2.462zM12.308 27.077v2.462h17.231v-2.462h-17.231z"></path>
<path d="M6.154 2.462c0-0.679-0.551-1.231-1.231-1.231h-2.462c-0.679 0-1.231 0.551-1.231 1.231v2.462c0 0.679 0.551 1.231 1.231 1.231h2.462c0.679 0 1.231-0.551 1.231-1.231v-2.462z"></path>
<path d="M4.923 7.385h-2.462c-1.358 0-2.462-1.104-2.462-2.462v-2.462c0-1.358 1.104-2.462 2.462-2.462h2.462c1.358 0 2.462 1.104 2.462 2.462v2.462c0 1.358-1.104 2.462-2.462 2.462zM2.462 2.462v2.462h2.463l-0.001-2.462h-2.462z"></path>
<path d="M6.154 14.769c0-0.679-0.551-1.231-1.231-1.231h-2.462c-0.679 0-1.231 0.551-1.231 1.231v2.462c0 0.679 0.551 1.231 1.231 1.231h2.462c0.679 0 1.231-0.551 1.231-1.231v-2.462z"></path>
<path d="M4.923 19.692h-2.462c-1.358 0-2.462-1.104-2.462-2.462v-2.462c0-1.358 1.104-2.462 2.462-2.462h2.462c1.358 0 2.462 1.104 2.462 2.462v2.462c0 1.358-1.104 2.462-2.462 2.462zM2.462 14.769v2.462h2.463l-0.001-2.462h-2.462z"></path>
<path d="M6.154 27.077c0-0.679-0.551-1.231-1.231-1.231h-2.462c-0.679 0-1.231 0.551-1.231 1.231v2.462c0 0.679 0.551 1.231 1.231 1.231h2.462c0.679 0 1.231-0.551 1.231-1.231v-2.462z"></path>
<path d="M4.923 32h-2.462c-1.358 0-2.462-1.104-2.462-2.462v-2.462c0-1.358 1.104-2.462 2.462-2.462h2.462c1.358 0 2.462 1.104 2.462 2.462v2.462c0 1.358-1.104 2.462-2.462 2.462zM2.462 27.077v2.462h2.463l-0.001-2.462h-2.462z"></path>
</symbol>
<symbol id="icon-plus" viewBox="0 0 32 32">
<path d="M17.778-0l-0 14.222 14.222 0v3.556l-14.222-0 0 14.222h-3.556l-0-14.222-14.222 0v-3.556l14.222-0 0-14.222h3.556z"></path>
</symbol>
<symbol id="icon-share" viewBox="0 0 32 32">
<path d="M20.8 5.6c0-3.093 2.507-5.6 5.6-5.6s5.6 2.507 5.6 5.6c0 3.093-2.507 5.6-5.6 5.6-1.572 0-2.993-0.648-4.010-1.691l-6.918 3.626c0.341 0.889 0.528 1.855 0.528 2.865s-0.187 1.975-0.528 2.865l6.918 3.626c1.017-1.043 2.438-1.691 4.010-1.691 3.093 0 5.6 2.507 5.6 5.6s-2.507 5.6-5.6 5.6c-3.093 0-5.6-2.507-5.6-5.6 0-0.368 0.035-0.727 0.103-1.075l-7.161-3.754c-1.454 1.498-3.489 2.429-5.742 2.429-4.418 0-8-3.582-8-8s3.582-8 8-8c2.253 0 4.288 0.931 5.742 2.429l7.161-3.754c-0.068-0.348-0.103-0.707-0.103-1.075z"></path>
</symbol>
<symbol id="icon-sort-ascending" viewBox="0 0 32 32">
<path d="M31.438 22.479l-6.4 6.399c-0.006 0.006-0.012 0.011-0.018 0.016-0.039 0.038-0.080 0.076-0.122 0.11-0.023 0.019-0.048 0.036-0.071 0.053-0.026 0.020-0.052 0.040-0.080 0.059s-0.056 0.034-0.084 0.051c-0.026 0.015-0.050 0.031-0.077 0.045-0.029 0.015-0.058 0.028-0.087 0.042-0.028 0.013-0.055 0.027-0.083 0.039s-0.057 0.021-0.086 0.031c-0.030 0.011-0.061 0.023-0.092 0.032-0.029 0.009-0.057 0.015-0.086 0.022-0.032 0.008-0.063 0.017-0.096 0.023s-0.067 0.010-0.1 0.015c-0.029 0.004-0.057 0.009-0.085 0.012-0.063 0.006-0.126 0.010-0.189 0.010s-0.126-0.003-0.189-0.010c-0.029-0.003-0.056-0.008-0.085-0.012-0.034-0.005-0.067-0.009-0.101-0.015-0.032-0.006-0.063-0.015-0.095-0.023-0.029-0.007-0.058-0.014-0.087-0.022-0.031-0.009-0.061-0.021-0.091-0.032-0.029-0.010-0.058-0.020-0.086-0.031s-0.055-0.026-0.083-0.039c-0.029-0.014-0.059-0.027-0.087-0.042-0.026-0.014-0.051-0.030-0.077-0.045-0.028-0.017-0.057-0.033-0.084-0.051s-0.054-0.039-0.081-0.059c-0.023-0.017-0.047-0.034-0.070-0.052-0.046-0.037-0.089-0.077-0.131-0.119-0.003-0.003-0.006-0.005-0.009-0.008l-6.4-6.4c-0.347-0.347-0.561-0.827-0.561-1.357 0-1.060 0.86-1.92 1.92-1.92 0.53 0 1.009 0.215 1.357 0.561l3.122 3.122v-10.725c0-1.060 0.86-1.92 1.92-1.92s1.92 0.86 1.92 1.92v0 10.725l3.122-3.122c0.347-0.347 0.827-0.562 1.358-0.562 1.060 0 1.92 0.86 1.92 1.92 0 0.53-0.215 1.010-0.563 1.358v0zM13.44 12.8h-11.52c-1.060 0-1.92 0.86-1.92 1.92s0.86 1.92 1.92 1.92h11.52c1.060 0 1.92-0.86 1.92-1.92s-0.86-1.92-1.92-1.92v0zM1.92 6.4h21.76c1.060 0 1.92-0.86 1.92-1.92s-0.86-1.92-1.92-1.92v0h-21.76c-1.060 0-1.92 0.86-1.92 1.92s0.86 1.92 1.92 1.92v0zM10.88 23.040h-8.96c-1.060 0-1.92 0.86-1.92 1.92s0.86 1.92 1.92 1.92v0h8.96c1.060 0 1.92-0.86 1.92-1.92s-0.86-1.92-1.92-1.92v0z"></path>
</symbol>
<symbol id="icon-sort-descending" viewBox="0 0 32 32">
<path d="M31.438 12.236c-0.347 0.348-0.828 0.563-1.358 0.563s-1.010-0.215-1.357-0.562l-3.122-3.122v10.725c0 1.060-0.86 1.92-1.92 1.92s-1.92-0.86-1.92-1.92v0-10.725l-3.122 3.122c-0.347 0.347-0.827 0.561-1.357 0.561-1.060 0-1.92-0.86-1.92-1.92 0-0.53 0.215-1.009 0.561-1.357l6.4-6.4c0.003-0.003 0.006-0.006 0.009-0.009 0.042-0.041 0.085-0.081 0.131-0.118 0.023-0.019 0.047-0.035 0.071-0.053 0.027-0.020 0.053-0.041 0.080-0.059s0.056-0.034 0.084-0.051c0.026-0.015 0.050-0.031 0.077-0.045 0.029-0.015 0.058-0.028 0.087-0.042 0.028-0.013 0.055-0.027 0.083-0.039s0.057-0.021 0.086-0.031c0.030-0.011 0.060-0.023 0.091-0.032 0.029-0.009 0.058-0.015 0.087-0.022 0.032-0.008 0.063-0.017 0.095-0.023 0.033-0.007 0.067-0.011 0.101-0.015 0.028-0.004 0.056-0.009 0.085-0.012 0.063-0.006 0.126-0.010 0.189-0.010v0l0.001 0c0.063 0 0.125 0.003 0.188 0.009 0.028 0.003 0.055 0.008 0.083 0.012 0.034 0.005 0.069 0.009 0.103 0.016 0.031 0.006 0.062 0.015 0.093 0.023 0.030 0.007 0.060 0.014 0.089 0.023s0.059 0.020 0.089 0.031c0.030 0.011 0.060 0.020 0.089 0.032 0.027 0.011 0.053 0.025 0.080 0.037 0.030 0.014 0.061 0.028 0.090 0.043 0.025 0.013 0.049 0.029 0.073 0.043 0.029 0.018 0.059 0.034 0.088 0.053 0.026 0.018 0.051 0.037 0.076 0.056s0.050 0.036 0.074 0.056c0.042 0.035 0.082 0.072 0.122 0.11 0.006 0.006 0.013 0.011 0.019 0.017l6.4 6.399c0.348 0.347 0.563 0.828 0.563 1.358s-0.215 1.010-0.562 1.358v0zM1.92 19.2h11.52c1.060 0 1.92-0.86 1.92-1.92s-0.86-1.92-1.92-1.92v0h-11.52c-1.060 0-1.92 0.86-1.92 1.92s0.86 1.92 1.92 1.92v0zM1.92 8.96h8.96c1.060 0 1.92-0.86 1.92-1.92s-0.86-1.92-1.92-1.92v0h-8.96c-1.060 0-1.92 0.86-1.92 1.92s0.86 1.92 1.92 1.92v0zM23.68 25.6h-21.76c-1.060 0-1.92 0.86-1.92 1.92s0.86 1.92 1.92 1.92v0h21.76c1.060 0 1.92-0.86 1.92-1.92s-0.86-1.92-1.92-1.92v0z"></path>
</symbol>
<symbol id="icon-storage" viewBox="0 0 32 32">
<path d="M16 0c7.050 0 13.009 2.909 13.211 6.393-0.202 3.484-6.162 6.397-13.211 6.397s-13.009-2.909-13.211-6.393c0.202-3.487 6.162-6.397 13.211-6.397z"></path>
<path d="M29.231 25.424c0 3.566-6.057 6.576-13.231 6.576s-13.231-3.011-13.231-6.576v-3.144c2.266 2.72 7.275 4.571 13.231 4.571s10.965-1.851 13.231-4.571v3.144z"></path>
<path d="M29.231 18.978c0 3.562-6.060 6.576-13.231 6.576-7.174 0-13.231-3.011-13.231-6.576v-3.275c2.266 2.72 7.275 4.568 13.231 4.568s10.965-1.851 13.231-4.568v3.275z"></path>
<path d="M29.231 12.395c0 3.566-6.057 6.576-13.231 6.576s-13.231-3.011-13.231-6.576v-2.877c2.266 2.72 7.275 4.568 13.231 4.568s10.965-1.848 13.231-4.568v2.877z"></path>
</symbol>
<symbol id="icon-storage-indicator" viewBox="0 0 32 32">
<path d="M6.81 26.080c0-0.74-0.6-1.34-1.34-1.34s-1.34 0.6-1.34 1.34c0 0.74 0.6 1.34 1.34 1.34s1.34-0.6 1.34-1.34zM6.81 16c0-0.74-0.6-1.34-1.34-1.34s-1.34 0.6-1.34 1.34c0 0.74 0.6 1.34 1.34 1.34s1.34-0.6 1.34-1.34zM29.61 32h-27.22c-1.32 0-2.39-1.070-2.39-2.39v-27.22c0-1.32 1.070-2.39 2.39-2.39h27.22c1.32 0 2.39 1.070 2.39 2.39v27.22c0 1.32-1.070 2.39-2.39 2.39zM2.96 30.72h26.080c0.92 0 1.68-0.76 1.68-1.68v-5.91c0-0.93-0.76-1.68-1.68-1.68h-26.080c-0.92 0-1.68 0.75-1.68 1.68v5.91c0 0.92 0.76 1.68 1.68 1.68zM2.96 20.48h26.080c0.92 0 1.68-0.76 1.68-1.69v-5.58c0-0.93-0.76-1.69-1.68-1.69h-26.080c-0.92 0-1.68 0.76-1.68 1.69v5.58c0 0.93 0.76 1.69 1.68 1.69zM2.96 10.47h26.080c0.92 0 1.68-0.75 1.68-1.68v-5.83c0-0.92-0.76-1.68-1.68-1.68h-26.080c-0.92 0-1.68 0.76-1.68 1.68v5.83c0 0.93 0.76 1.68 1.68 1.68zM6.81 5.88c0-0.74-0.6-1.34-1.34-1.34s-1.34 0.6-1.34 1.34c0 0.74 0.6 1.34 1.34 1.34s1.34-0.6 1.34-1.34z"></path>
</symbol>
<symbol id="icon-tile-2x2" viewBox="0 0 32 32">
<path d="M2.462 0c-1.359 0-2.462 1.102-2.462 2.462v9.846c0 1.359 1.102 2.462 2.462 2.462h9.846c1.359 0 2.462-1.102 2.462-2.462v-9.846c0-1.359-1.102-2.462-2.462-2.462h-9.846zM2.462 17.231c-1.359 0-2.462 1.102-2.462 2.462v9.846c0 1.36 1.102 2.462 2.462 2.462h9.846c1.359 0 2.462-1.102 2.462-2.462v-9.846c0-1.359-1.102-2.462-2.462-2.462h-9.846zM17.231 2.462c0-1.359 1.102-2.462 2.462-2.462h9.846c1.36 0 2.462 1.102 2.462 2.462v9.846c0 1.359-1.102 2.462-2.462 2.462h-9.846c-1.359 0-2.462-1.102-2.462-2.462v-9.846zM19.692 17.231c-1.359 0-2.462 1.102-2.462 2.462v9.846c0 1.36 1.102 2.462 2.462 2.462h9.846c1.36 0 2.462-1.102 2.462-2.462v-9.846c0-1.359-1.102-2.462-2.462-2.462h-9.846z"></path>
</symbol>
<symbol id="icon-tile" viewBox="0 0 32 32">
<path d="M11.2 2.462c0-1.359 1.102-2.462 2.462-2.462h4.677c1.359 0 2.462 1.102 2.462 2.462v4.677c0 1.359-1.102 2.462-2.462 2.462h-4.677c-1.359 0-2.462-1.102-2.462-2.462v-4.677zM0 13.662c0-1.359 1.102-2.462 2.462-2.462h4.677c1.359 0 2.462 1.102 2.462 2.462v4.677c0 1.359-1.102 2.462-2.462 2.462h-4.677c-1.359 0-2.462-1.102-2.462-2.462v-4.677zM0 24.862c0-1.359 1.102-2.462 2.462-2.462h4.677c1.359 0 2.462 1.102 2.462 2.462v4.677c0 1.36-1.102 2.462-2.462 2.462h-4.677c-1.359 0-2.462-1.102-2.462-2.462v-4.677zM13.662 11.2c-1.359 0-2.462 1.102-2.462 2.462v4.677c0 1.359 1.102 2.462 2.462 2.462h4.677c1.359 0 2.462-1.102 2.462-2.462v-4.677c0-1.359-1.102-2.462-2.462-2.462h-4.677zM24.862 0c-1.359 0-2.462 1.102-2.462 2.462v4.677c0 1.359 1.102 2.462 2.462 2.462h4.677c1.36 0 2.462-1.102 2.462-2.462v-4.677c0-1.359-1.102-2.462-2.462-2.462h-4.677zM22.4 13.662c0-1.359 1.102-2.462 2.462-2.462h4.677c1.36 0 2.462 1.102 2.462 2.462v4.677c0 1.359-1.102 2.462-2.462 2.462h-4.677c-1.359 0-2.462-1.102-2.462-2.462v-4.677zM24.862 22.4c-1.359 0-2.462 1.102-2.462 2.462v4.677c0 1.36 1.102 2.462 2.462 2.462h4.677c1.36 0 2.462-1.102 2.462-2.462v-4.677c0-1.359-1.102-2.462-2.462-2.462h-4.677zM0 2.462c0-1.359 1.102-2.462 2.462-2.462h4.677c1.359 0 2.462 1.102 2.462 2.462v4.677c0 1.359-1.102 2.462-2.462 2.462h-4.677c-1.359 0-2.462-1.102-2.462-2.462v-4.677zM13.662 22.4c-1.359 0-2.462 1.102-2.462 2.462v4.677c0 1.36 1.102 2.462 2.462 2.462h4.677c1.359 0 2.462-1.102 2.462-2.462v-4.677c0-1.359-1.102-2.462-2.462-2.462h-4.677z"></path>
</symbol>
<symbol id="icon-upload" viewBox="0 0 32 32">
<path d="M17.076 0.4c-0.256-0.258-0.659-0.4-1.062-0.4-0.36 0-0.805 0.142-1.062 0.4l-7.963 8.020c-0.391 0.393-0.506 0.984-0.291 1.494 0.214 0.511 0.714 0.843 1.268 0.842l2.598-0.021-0.038 11.378c0.004 1.127 0.919 2.039 2.047 2.039h6.884c1.125 0 2.041-0.912 2.045-2.039l-0.037-11.375 2.598 0.019c0.554 0.001 1.056-0.331 1.268-0.842 0.215-0.51 0.101-1.102-0.291-1.494l-7.963-8.020z"></path>
<path d="M29.647 13.531c-1.134 0-2.059 0.919-2.059 2.052v11.45c0 0.474-0.365 0.85-0.84 0.85h-21.53c-0.475 0-0.865-0.377-0.865-0.85v-11.451c0-1.133-0.896-2.052-2.029-2.052s-2.029 0.919-2.029 2.052v11.45c0 2.737 2.187 4.966 4.925 4.966h21.529c2.738 0 4.958-2.23 4.958-4.966v-11.45c-0.001-1.133-0.927-2.052-2.059-2.052z"></path>
</symbol>
</defs>
</svg>