<?xml version="1.0" encoding="utf-8"?>
<!-- Svg Vector Icons : http://www.onlinewebfonts.com/icon -->
<!DOCTYPE svg PUBLIC "-//W3C//DTD SVG 1.1//EN" "http://www.w3.org/Graphics/SVG/1.1/DTD/svg11.dtd">
<svg version="1.1" xmlns="http://www.w3.org/2000/svg" xmlns:xlink="http://www.w3.org/1999/xlink" x="0px" y="0px" viewBox="0 0 1000 1000" enable-background="new 0 0 1000 1000" xml:space="preserve">
<metadata> Svg Vector Icons : http://www.onlinewebfonts.com/icon </metadata>
<g><g><g><path d="M500,10c215.9,0,398.4,89.1,404.6,195.8C898.4,312.5,715.9,401.7,500,401.7c-215.9,0-398.4-89.1-404.6-195.8C101.6,99.1,284.1,10,500,10z"/><path d="M905.2,788.6C905.2,897.8,719.7,990,500,990c-219.7,0-405.2-92.2-405.2-201.4v-96.3c69.4,83.3,222.8,140,405.2,140c182.4,0,335.8-56.7,405.2-140V788.6L905.2,788.6z"/><path d="M905.2,591.2c0,109.1-185.6,201.4-405.2,201.4c-219.7,0-405.2-92.2-405.2-201.4V490.9c69.4,83.3,222.8,139.9,405.2,139.9c182.4,0,335.8-56.7,405.2-139.9V591.2L905.2,591.2z"/><path d="M905.2,389.6C905.2,498.8,719.7,591,500,591c-219.7,0-405.2-92.2-405.2-201.4v-88.1c69.4,83.3,222.8,139.9,405.2,139.9c182.4,0,335.8-56.6,405.2-139.9V389.6z"/></g></g><g></g><g></g><g></g><g></g><g></g><g></g><g></g><g></g><g></g><g></g><g></g><g></g><g></g><g></g><g></g></g>
</svg>