<svg xmlns="http://www.w3.org/2000/svg" viewBox="0 0 1000 1000" xml:space="preserve">
  <path fill="#5ce1e6" d="M500 10c215.9 0 398.4 89.1 404.6 195.8-6.2 106.7-188.7 195.9-404.6 195.9-215.9 0-398.4-89.1-404.6-195.8C101.6 99.1 284.1 10 500 10zM905.2 788.6C905.2 897.8 719.7 990 500 990S94.8 897.8 94.8 788.6v-96.3c69.4 83.3 222.8 140 405.2 140 182.4 0 335.8-56.7 405.2-140v96.3z"/>
  <path fill="#5ce1e6" d="M905.2 591.2c0 109.1-185.6 201.4-405.2 201.4-219.7 0-405.2-92.2-405.2-201.4V490.9c69.4 83.3 222.8 139.9 405.2 139.9 182.4 0 335.8-56.7 405.2-139.9v100.3z"/>
  <path fill="#5ce1e6" d="M905.2 389.6C905.2 498.8 719.7 591 500 591S94.8 498.8 94.8 389.6v-88.1c69.4 83.3 222.8 139.9 405.2 139.9 182.4 0 335.8-56.6 405.2-139.9v88.1z"/>
</svg>
